<?xml version="1.0" encoding="utf-8"?>
<!-- Generator: Adobe Illustrator 23.0.1, SVG Export Plug-In . SVG Version: 6.00 Build 0)  -->
<svg version="1.1" id="Layer_1" xmlns="http://www.w3.org/2000/svg" xmlns:xlink="http://www.w3.org/1999/xlink" x="0px" y="0px"
	 viewBox="0 0 1350 1350" style="enable-background:new 0 0 1350 1350;" xml:space="preserve">
<style type="text/css">
	.st0{fill:#8CD93B;}
	.st1{fill:#4B8935;}
</style>
<g>
	<path class="st0" d="M980.8,961.5c16.2-46.8,35.9-126.4,17.7-218c-52.7-265-370.7-363.6-412.2-375.8
		c-63.6-18.7-233.6-57.9-417.2,18.4C94.3,417.3,39.6,458.3,4.7,488.9c33.7-0.7,86.6,2.4,142.4,27.3
		c170.2,75.7,133.4,248.6,317.7,389.1c22.9,17.5,183.6,136.5,353.5,95.3c16.5-4,29.9-8.7,39-12.3c0,0,23-18.8,22.6-67.8
		c-0.2-25.5-23.5-61.6-57.1-100.5C690.8,666.9,567.3,602,571.9,593.7c5.3-9.6,180.4,35.5,306.2,184.9
		C933.3,844.2,963.5,911.5,980.8,961.5z"/>
	<path class="st1" d="M1029.1,923.4c2.8-17.8,4.9-38.2,5.5-60.7c0.5-22.1-0.5-42.3-2.3-60c14-16.5,54.3-59.3,121.5-74.8
		c101.1-23.2,180,34.8,191.6,43.6c-21.9,4.5-53.8,14.5-81,39.7c-43.5,40.4-36.8,84.4-71.6,119.1c-20.6,20.6-59.4,41.4-139.4,34.3
		c9-24.1,24.7-57.6,52.9-90.3c38.2-44.3,77.1-61.5,73.2-70.1c-3.9-8.4-47.2-3-81.8,18.7C1050.3,852.6,1034.3,903.2,1029.1,923.4z"/>
</g>
</svg>
