<?xml version="1.0" encoding="utf-8"?>
<!-- Generator: Adobe Illustrator 23.0.1, SVG Export Plug-In . SVG Version: 6.00 Build 0)  -->
<svg version="1.1" id="Layer_1" xmlns="http://www.w3.org/2000/svg" xmlns:xlink="http://www.w3.org/1999/xlink" x="0px" y="0px"
	 viewBox="0 0 1920 1080" style="enable-background:new 0 0 1920 1080;" xml:space="preserve">
<style type="text/css">
	.st0{opacity:0.47;}
	.st1{fill:#8cd93b;}
</style>
<g class="st0">
	<path class="st1" d="M373.8,1314c63.4,5.5,126.9,10.9,190.3,16.4c-1.9-120.9-3.9-241.7-5.8-362.6c0,0,82.5-115.4,149-152.2
		c66.5-36.8,125.1-82.7,125.1-82.7l13.6-14.4l90.2-142.8c0,0-23.2-18.2-37.4-10.1c0,0-3.5,1.4-6.6,4.2
		c-12.9,11.5-79.7,106-87.4,116.9c-0.4,0.3-0.8,0.7-1.3,1c-0.6,0.2-1.2,0.5-1.7,0.7c-23.1,4.8-47.5,10.7-73,18
		c-37.3,10.8-71.2,22.9-101.5,35.4c0,0,8.4-13.1,19.4-23.7c11-10.6,46.4-42.8,46.4-42.8s19.6-18.5,22-28.6
		c2.4-10.1,2.1-21.5-4.9-27.1c-7-5.6-21.5-9.5-27.9-8.3c-6.4,1.2-11.9-0.9-32.3,13.6c-20.4,14.5-41.2,49.4-59.4,64.6
		c-18.2,15.2-73.3,36.3-73.3,36.3s-58.2,31.7-83.4,104.5c-4.5,31.3-8.8,62.7-13.1,94.2C402.8,1056.3,387.3,1186.1,373.8,1314z"/>
	<path class="st1" d="M714.5,706.2c45.3-11.9,78.1-20.6,81.5-21.4c0.5-0.1,2.2-0.5,4-1.7c1.9-1.3,2.9-2.8,3.2-3.3
		c2.1-3.2,13.8-20.8,29.7-44.9c1.1-10.8,2.4-21.9,3.9-33.1c5.2-38.1,12.5-73.5,20.9-106c0,0-21.7-10.6-39.5,4.8
		c-17.8,15.4-21.9,54.9-21.9,54.9s-7.6,19.2-15.4,39.3c-12.9,33.4-10.4,34.3-16.6,45.5c-7.2,13.1-11.1,14.5-36.2,47.5
		C722.2,695.6,717.5,702.1,714.5,706.2z"/>
	<path class="st1" d="M849,550.7c2.7-1.9,6.5-4,11.4-5.1c15.5-3.4,28.3,6.7,30.4,8.4c-0.8,3-1.9,6.1-3.1,9.4
		c-2.6,6.7-5.7,12.3-8.6,16.9c-13.9,18.3-27.8,36.5-41.7,54.8C841.2,607,845.1,578.8,849,550.7z"/>
</g>
<g class="st0">
	<path class="st1" d="M270.1,662.7c12.2-19.6,15.8-36.5,16.9-47.2c2.4-22.4-2.8-45.3-8.7-72c-0.8-3.3-1.4-6.1-1.9-8
		c-3.9-24.4-3.5-43.7-0.3-52.9c1-2.8,3.1-7.5,7.8-11.7c1.6-1.5,3.9-2.5,8.3-3.7c11.3-3,26.1-2.9,38,12.8
		c12,15.7,13.7,118.1,13.7,118.1s2.4,46.7,16.5,67.7c14.1,20.9,7.8,71.4,7.8,71.4s-1.5,45.4-46,82.6
		c-91.8,145.5-183.6,291.1-275.4,436.6c-65-38.3-129.9-76.6-194.9-114.9C-36.8,1017.7,74.5,894,185.7,770.2
		c10.8-34.2,13.3-62.1,13.7-80.7c0.9-43.6-9.3-60.2-8.9-118.9c0.1-27.9,2.4-25.1,2.7-55.1c0.5-53.9-7-58.5-8.4-106.8
		c-0.9-31.2,2.3-63.6,8.7-128.4c1.4-14.2,2.7-26,3.6-34.1c5.2-1.3,18.4-3.8,28.9,3.5c6.3,4.4,11.7,12.2,13.9,25.8
		c6.4,40.2-3.7,126.9-3.7,127.8c12.7,51.3,23.5,94.8,33.8,134.9c3.9,15.3,9.6,37,9.1,66.4C278.6,629.1,274.1,649.2,270.1,662.7z"/>
	<path class="st1" d="M240,263.5l12.1-55c0,0,38,0.1,32.6,38.9c-5.4,38.8-13.9,115.1-17.2,131.6c0,0-0.6,4-0.5,8.1
		c0.1,4.1,19.5,36.5,23.9,75c-3.9,1.5-10.8,4.7-15.5,11.8c-3.6,5.5-4.1,10.9-5,21.7c-0.8,9-0.4,20.9,0.7,27.5c0,0.1,0.1,0.4,0,0.4
		c-0.5,0.1-30.9-121.9-30.9-121.9s7.4-68.4,6.8-81.7C246.4,306.5,246.9,277.8,240,263.5z"/>
	<path class="st1" d="M286.2,265.8c3.4,1.3,8.6,3.8,12.3,8.9c6,8.2,5,18.4,4.1,23.7c-4.3,27.6-16.8,95.2-16.9,96.5
		c-0.1,2.5,3.3,10.9,3.8,22.5c0.3,6.5-0.2,11.8-0.6,14.7c-2.4-9.1-5.2-16.1-7.4-20.9c-2.4-5.3-5.7-11.8-9.1-22.1
		c-0.6-1.7-1-3.2-1.3-4.2C276.1,345.2,281.1,305.5,286.2,265.8z"/>
	<path class="st1" d="M290.6,402.6c1.3,3.5,2.8,8.8,3,15.3c0.2,8-1.6,14.4-3.1,18.2c1.3,8,2.6,16,3.9,24c1.4-0.1,3-0.2,4.8,0
		c2.2,0.2,4.2,0.6,5.7,1c1.3-7.4,3.1-15.9,5.7-25.4c4.3-16.1,8.6-28,10.4-31.9c4.3-9.2,10.8-24.1,10.8-24.1s8.6-23.2-13.7-32
		C308.8,366.1,299.7,384.4,290.6,402.6z"/>
</g>
<g class="st0">
	<circle class="st1" cx="518.5" cy="295.3" r="115.2"/>
	<circle class="st1" cx="676.3" cy="382.4" r="115.2"/>
	<path class="st1" d="M787.5,412.5c-2.1,7-4.7,13.7-7.5,20.1C725.5,553.1,539.8,576,473.1,581.5c-29.2-48.2-125.9-219.2-56.7-339.7
		c4.4-7.6,9.5-15.2,15.4-22.5c55.5,20.8,118.1,48.1,184.5,84.2C682.8,339.6,739.8,377.2,787.5,412.5z"/>
</g>
</svg>
