<?xml version="1.0" encoding="utf-8"?>
<!-- Generator: Adobe Illustrator 26.0.2, SVG Export Plug-In . SVG Version: 6.00 Build 0)  -->
<svg version="1.1" baseProfile="tiny" id="Layer_1" xmlns="http://www.w3.org/2000/svg" xmlns:xlink="http://www.w3.org/1999/xlink"
	 x="0px" y="0px" viewBox="0 0 1920 1080" overflow="visible" xml:space="preserve">
<rect x="573.7" y="222.1" fill="none" width="1219.3" height="448.9"/>
<rect x="512" y="222" width="20" height="373"/>
<circle cx="353.5" cy="336.5" r="55.5"/>
<rect x="278" y="337" width="131" height="140"/>
<rect x="278" y="268" width="26" height="71"/>
<path d="M231.5,281.5c5.1,2.5,10.4,1.5,12.5-1.5c1.2-1.7,1.2-3.7,1-5c11.7,0,23.3,0,35,0c3.3,5,6.7,10,10,15c4.7-8.7,9.3-17.3,14-26
	c0-6.7,0-13.3,0-20c1,0,2.2-0.2,3-1c3.3-3.1-0.3-13.1-5-19c-6.2-7.7-15.3-9.5-19-10c-0.2,16.8-0.3,33.7-0.5,50.5c-17,0-34,0-51,0
	C231.5,270.2,231.5,275.8,231.5,281.5z"/>
<path d="M225,224c-14.2,5.2-22.6,19.1-20.5,32.5c1.6,10.4,9.4,19.3,20,23C224.7,261,224.8,242.5,225,224z"/>
<path d="M254.5,211.5c-10.2,1.6-17.7,5.4-22,8c-0.3,12.7-0.7,25.3-1,38c15.3-0.3,30.7-0.7,46-1c0-14.7,0-29.3,0-44
	C272.7,211.3,264.5,210,254.5,211.5z M254,246.5c-6.4,0-11.5-5.1-11.5-11.5s5.1-11.5,11.5-11.5c6.4,0,11.5,5.1,11.5,11.5
	S260.4,246.5,254,246.5z"/>
<ellipse cx="251.5" cy="235" rx="6.1" ry="6.5"/>
<rect x="408.5" y="328.5" width="20.5" height="10.5"/>
<rect x="419.5" y="332.5" width="9.5" height="56"/>
<rect x="399" y="476.5" width="10" height="111"/>
<rect x="382.2" y="476.2" width="10" height="111"/>
<rect x="308" y="475.2" width="10" height="111"/>
<polygon points="304.7,470.4 296,465.4 275.6,500.7 284.3,505.7 "/>
<polygon points="285.6,496.9 276.2,500.4 307.3,585.4 316.7,581.9 "/>
<rect x="291" y="258" width="13" height="46"/>
<g id="svgGroup">
	<g id="svgGroup_00000008860887111448210090000011058087345518108045_">
		
			<path vector-effect="non-scaling-stroke" fill-rule="evenodd" fill="#333333" stroke="#4D4D4D" stroke-width="0.7087" stroke-linecap="round" d="
			M1290,713.7c-1.2,0-2.2-0.1-3.2-0.3c-0.7,1.4-1.6,2.7-2.6,3.9s-2.2,2.2-3.5,3.1c-1.2,0.8-2.6,1.5-4,1.9c-0.2,0-0.3,0.1-0.4,0.2
			c-1.6,0.5-3.4,0.8-5.3,0.8c-1.3,0-2.7-0.1-4-0.5c-0.8-0.2-1.5-0.4-2.2-0.7c-1.8-0.7-3.5-1.8-4.9-3.2c-1.3-1.2-2.3-2.7-3-4.3
			c-0.1-0.2-0.2-0.4-0.3-0.6c-0.6-1.4-0.9-2.9-1.1-4.5c-0.1-0.6-0.1-1.3-0.1-1.9c0-1.3,0.1-2.5,0.3-3.8c0.2-1.4,0.7-2.7,1.3-4
			c0.5-1,1.1-2,1.8-3c0.6-0.9,1.3-1.7,2.1-2.5c1.4-1.5,2.9-2.6,4.3-3.3c0.3-0.2,0.7-0.3,1-0.5c0.7-0.3,1.2-0.5,1.7-0.5
			c0.2,0,0.4-0.1,0.6-0.1c0.6,0,1,0.1,1.4,0.3c0.2,0.1,0.3,0.2,0.4,0.3c0.3,0.3,0.5,0.7,0.6,1c0,0.2,0.1,0.4,0.1,0.6
			c0,0.7-0.2,1.2-0.5,1.6c-0.1,0.1-0.2,0.2-0.2,0.2c-0.4,0.3-1,0.7-1.6,1c-0.1,0-0.2,0.1-0.3,0.2c-0.3,0.2-0.7,0.4-1,0.6
			c-0.3,0.2-0.7,0.5-1.1,0.7c-0.1,0.1-0.2,0.2-0.4,0.3c-0.6,0.4-1.1,0.9-1.5,1.5c-0.3,0.3-0.6,0.7-0.9,1.1c-0.5,0.6-0.8,1.3-1.2,2
			c-0.2,0.5-0.5,1.1-0.7,1.6c-0.5,1.4-0.7,3-0.7,4.7c0,1,0.1,2.1,0.4,3.1c0.1,0.4,0.2,0.8,0.4,1.2c0.3,0.9,0.8,1.8,1.3,2.6
			c0.2,0.3,0.5,0.6,0.7,0.9c0.9,1,2,1.7,3.2,2.2s2.6,0.8,4.2,0.8c1,0,2-0.1,3-0.3c1.3-0.3,2.6-0.8,3.6-1.4c0.1,0,0.1-0.1,0.2-0.1
			c1.8-1.2,3.2-2.8,4.1-4.7c-2.8-1.4-5.2-3.5-7-6.1c-1.8-2.7-2.7-5.6-2.7-8.9c0-0.9,0.1-1.9,0.3-2.8c0.3-1.4,0.9-2.7,1.7-3.7
			c0.6-0.7,1.2-1.3,2-1.8c0.9-0.5,2-0.8,3.2-0.8c1.3,0,2.5,0.3,3.7,0.9c1.2,0.6,2.2,1.6,3.1,2.9c0.8,1.1,1.4,2.5,1.8,4.1
			c0.1,0.3,0.2,0.6,0.3,0.9c0.4,1.7,0.7,3.8,0.8,6.1c0,0.4,0,0.8,0,1.2c0,1.5-0.2,3-0.6,4.7c0.3,0,0.6,0.1,0.9,0.1h0.9
			c0.8,0,1.6,0,2.3-0.1c0.7-0.1,1.4-0.2,2.1-0.4c1.3-0.4,2.4-0.9,3.5-1.7c0.8-0.6,1.5-1.2,2.1-1.9c0.3-0.3,0.5-0.6,0.7-0.9
			c0.8-1.2,1.6-2.5,2.4-4c0.1-0.3,0.4-0.5,0.9-0.8c0.1,0,0.2-0.1,0.2-0.1c-0.3-1.6-0.5-3.2-0.7-4.8c-0.4-3.1-0.7-6.3-0.9-9.5
			c0-0.4-0.1-0.9-0.1-1.3c-0.1-1.5-0.1-2.9-0.2-4.3c0-1.3-0.1-2.6-0.1-3.8c0-0.4,0-0.8,0-1.2c0-3,0.1-6,0.2-9c0.1-1,0.1-2.1,0.2-3.1
			c0.3-4.2,0.7-8.3,1.2-12.3c0.4-2.9,0.9-5.8,1.6-8.7c0.2-0.9,0.4-1.8,0.6-2.7c0.4-1.6,0.8-3.2,1.3-4.8c0.5-1.5,1-2.8,1.6-4.1
			c0.1-0.2,0.2-0.4,0.2-0.5c0.5-1,1-2,1.6-3s1.2-1.8,1.9-2.6c0.2-0.3,0.5-0.6,0.8-0.8c0.6-0.6,1.3-1.1,2-1.5c1-0.6,2.2-0.8,3.4-0.8
			c1.6,0,3,0.4,4.3,1.1c1.2,0.7,2.2,1.8,3,3.2c0.1,0.1,0.1,0.2,0.2,0.3c0.4,0.7,0.7,1.4,0.9,2.1c0.4,1.2,0.8,2.6,1.1,4.2
			c0.4,2,0.6,4.3,0.7,7c0,0.9,0,1.7,0,2.6c0,3.9-0.3,7.8-1,11.6c-0.2,0.9-0.3,1.8-0.5,2.8c-1,5.1-2.4,10.1-4.1,15
			c-1.8,5.1-3.8,10.1-6.1,15c-2.3,5-4.8,9.8-7.5,14.6c0.8,3.9,1.7,7.2,2.9,10c0.5,1.3,1.2,2.7,1.9,3.9c0.5,0.8,1.1,1.6,1.7,2.3
			c0.7,0.8,1.5,1.4,2.3,1.9c1,0.6,2.1,0.9,3.3,0.9c1.3,0,2.6-0.3,3.7-1c0.7-0.3,1.3-0.8,1.8-1.2c1.8-1.5,3.4-3.2,4.9-5.2
			s2.8-4,3.9-6.1s2-3.7,2.6-5c0.2-0.3,0.4-0.6,0.6-0.8l0,0c0.2-0.6,0.3-1.1,0.5-1.7c0.4-1.4,0.9-2.6,1.4-3.7c0.2-0.5,0.5-1,0.7-1.5
			c0.4-0.9,0.9-1.6,1.3-2.2c0.1-0.1,0.1-0.1,0.2-0.2l1-1.3c0.2-0.3,0.6-0.5,0.9-0.6s0.7-0.2,1.1-0.2c0.8,0,1.4,0.3,1.9,0.8
			s0.8,1.2,0.8,1.8c0,0.2-0.1,0.5-0.1,0.7c0,0,0,0.1-0.1,0.1c-0.1,0.3-0.2,0.6-0.4,0.8c-0.1,0.1-0.1,0.2-0.2,0.4
			c-0.2,0.4-0.6,0.9-0.9,1.6c-0.5,0.9-1.1,2-1.7,3.4c-0.3,0.7-0.5,1.4-0.8,2.1c-0.3,0.9-0.5,1.8-0.8,2.8c-0.2,1-0.4,2-0.5,3
			s-0.2,2.1-0.2,3.2c0,0.1,0,0.2,0,0.2c0,0.8,0.1,1.5,0.2,2.3c0.2,1.6,0.8,2.9,1.5,3.9c0.9,1.2,2.4,2,4,2.1c0.3,0,0.5,0,0.8,0
			c0.4,0,0.8,0,1.1-0.1c0.6-0.1,1.2-0.3,1.9-0.7c0.6-0.3,1.2-0.7,1.7-1.1c0.5-0.3,0.9-0.8,1.4-1.2c0.1-0.1,0.1-0.1,0.2-0.2
			c0.6-0.6,1.1-1.3,1.6-2c0.4-0.7,0.9-1.4,1.2-2.2c0.4-1,0.8-2,1.1-3c0.2-1,0.4-2,0.5-3.1l1.1-12c0.1-0.7,0.4-1.3,0.9-1.7
			c0.5-0.5,1.2-0.7,1.9-0.7c0.3,0,0.6,0,0.9,0.1c0.4,0.1,0.8,0.4,1,0.7c0.5,0.6,0.7,1.3,0.7,2l-0.9,11.6c0,0.2,0,0.4,0,0.6
			c0,0.7,0,1.5,0.1,2.5c0,0.2,0,0.5,0.1,0.7c0.2,1.6,0.5,3.1,1,4.7c0.3,1,0.8,2,1.5,2.8c0.3,0.4,0.6,0.8,0.9,1.1
			c0.9,0.9,2.1,1.5,3.4,1.6c0.3,0,0.5,0,0.8,0c1.1,0,2.1-0.2,3.1-0.7c0.2-0.1,0.4-0.2,0.6-0.3c0.8-0.5,1.7-1,2.4-1.6
			c0.4-0.3,0.7-0.6,1.1-0.9c1.1-1,2-2.1,2.9-3.2c0.1-0.1,0.1-0.2,0.2-0.2c0.9-1.3,1.8-2.6,2.6-3.9c0.4-0.7,0.9-1.5,1.3-2.3
			c0.3-0.5,0.5-1,0.8-1.5c0.4-0.8,0.7-1.5,1.1-2.2c0-0.1,0.1-0.1,0.1-0.2c-0.2-0.8-0.4-1.6-0.5-2.4c-0.1-0.3-0.1-0.6-0.2-1
			c-0.6-3-0.9-6.1-1.2-9.2c-0.2-2.6-0.3-5.2-0.3-7.8c0-1.5,0-3.3,0.1-5.4c0-1.5,0.1-3,0.2-4.4c0-0.7,0.1-1.4,0.1-2.1
			c0.1-2.1,0.3-4.1,0.5-6.2c0-0.3,0.1-0.6,0.1-0.9c0.3-2.4,0.7-4.8,1.2-7.2H1365c-0.3,0-0.7,0-1-0.2c-0.3-0.1-0.7-0.3-0.9-0.5
			c-0.5-0.4-0.8-0.9-0.8-1.5c0-0.1,0-0.2,0-0.2c0-0.3,0-0.5,0.1-0.8c0.1-0.4,0.4-0.7,0.7-1c0.5-0.4,1-0.6,1.6-0.7c0.1,0,0.2,0,0.3,0
			h27c0.3-1,0.6-2,1-3c0.2-0.5,0.4-1.1,0.7-1.6c0.7-1.4,1.4-2.6,2.2-3.6c0.5-0.6,1-1.1,1.6-1.6c0.4-0.3,0.8-0.6,1.2-0.8
			c1-0.6,2.2-0.9,3.4-0.9c0.6,0,1.1,0.1,1.7,0.2c0.5,0.1,1,0.4,1.4,0.7c0.6,0.4,1.2,0.9,1.6,1.5c0.2,0.3,0.4,0.6,0.6,0.9
			c0.3,0.6,0.7,1.2,0.9,1.8c0.2,0.6,0.4,1.2,0.6,1.8c0.2,0.8,0.4,1.7,0.5,2.5c0.1,0.7,0.2,1.4,0.3,2.1h36.6c0.3,0,0.7,0,1,0.2
			c0.3,0.1,0.7,0.3,0.9,0.5c0.5,0.4,0.8,0.9,0.8,1.5c0,0.1,0,0.2,0,0.2c0,0.3,0,0.5-0.1,0.8c-0.1,0.4-0.4,0.7-0.7,1
			c-0.5,0.4-1,0.6-1.6,0.7c-0.1,0-0.2,0-0.3,0h-36.4v0.8c0,1.8-0.1,3.7-0.2,5.5c-0.1,1.2-0.2,2.4-0.4,3.5c-0.4,3.2-1,6.4-1.8,9.6
			c-0.7,3.2-1.6,6.3-2.5,9.3c-0.4,1.5-0.9,2.9-1.4,4.4c-0.5,1.3-0.9,2.7-1.4,4c-0.4,1.1-0.8,2.1-1.3,3.2c-0.6,1.3-1.1,2.4-1.6,3.5
			c-0.3,0.5-0.6,1.1-0.8,1.6c-0.5,1-1,1.7-1.5,2.3c-0.1,0.1-0.2,0.2-0.2,0.3c0.4,1.5,0.9,3,1.5,4.4c0.2,0.5,0.4,1.1,0.7,1.6
			c0.5,1,1,2,1.6,2.9c0.4,0.7,0.9,1.3,1.3,1.9c1.1,1.4,2.2,2.5,3.5,3.2c1.2,0.8,2.6,1.2,4,1.2c1.7,0,3.3-0.7,5-2.1
			c1.3-1.1,2.4-2.2,3.5-3.5c0.4-0.5,0.7-0.9,1.1-1.4c1.3-1.7,2.5-3.5,3.5-5.4c0.1-0.1,0.1-0.2,0.2-0.4c0.2-0.5,0.5-0.9,0.8-1.4
			c0.5-1,1-1.9,1.3-2.6c0.1-0.2,0.2-0.4,0.3-0.7c0.1-0.3,0.3-0.6,0.5-0.9c0,0,0,0,0.1-0.1c0.2-3.8,0.6-7.7,1.1-11.5
			c0.1-0.7,0.4-1.2,0.9-1.7c0.4-0.4,0.9-0.6,1.5-0.7c0.2,0,0.3,0,0.5,0c0.6,0,1.2,0.2,1.7,0.7l0.1,0.1c0.5,0.5,0.7,1.2,0.7,1.8
			c0,0.1,0,0.1,0,0.2c0,0.4-0.1,1.2-0.2,2.3c-0.1,1-0.2,2-0.3,3.3c-0.1,0.6-0.1,1.2-0.2,1.7c-0.2,1.9-0.3,4-0.4,6.1
			c-0.1,1-0.1,2.1-0.1,3.1s0,1.9-0.1,2.8c0,0.7,0,1.5,0.1,2.2s0.1,1.4,0.2,2.1c0.1,0.6,0.2,1.2,0.4,1.7c0.2,0.5,0.4,1,0.6,1.5
			c0.4,0.8,0.8,1.5,1.3,2c0.3,0.3,0.6,0.6,1,0.9c0.4,0.3,0.9,0.6,1.3,0.7c0.1,0,0.1,0,0.2,0.1c0.5,0.2,1,0.3,1.5,0.3
			c0.3,0,0.7,0.1,1.1,0.1c0.8,0,1.5-0.1,2.2-0.4c0.5-0.2,1.1-0.5,1.6-0.8c0.1-0.1,0.2-0.1,0.3-0.2c0.7-0.4,1.3-0.9,1.9-1.4
			c0.8-0.7,1.7-1.5,2.5-2.5c1.5-1.6,2.9-3.6,4.4-5.8c0.1-0.1,0.1-0.2,0.2-0.2c0.9-1.5,1.8-3,2.7-4.5c0.6-1.1,1.2-2.2,1.8-3.4
			c0.2-0.3,0.4-0.6,0.6-0.8c0.1-0.1,0.2-0.1,0.2-0.2c0.4-0.7,0.8-1.3,1.2-1.9c0.6-0.9,1.3-1.7,2.1-2.5c1.4-1.5,2.9-2.6,4.3-3.3
			c0.3-0.2,0.7-0.3,1-0.5c0.7-0.3,1.2-0.5,1.7-0.5c0.2,0,0.4-0.1,0.6-0.1c0.6,0,1,0.1,1.4,0.3c0.2,0.1,0.3,0.2,0.4,0.3
			c0.3,0.3,0.5,0.7,0.6,1c0,0.2,0.1,0.4,0.1,0.6c0,0.7-0.2,1.2-0.5,1.6c-0.1,0.1-0.2,0.2-0.2,0.2c-0.4,0.3-1,0.7-1.6,1
			c-0.1,0-0.2,0.1-0.3,0.2c-0.3,0.2-0.7,0.4-1,0.6c-0.3,0.2-0.7,0.5-1.1,0.7c-0.1,0.1-0.2,0.2-0.4,0.3c-0.6,0.4-1.1,0.9-1.5,1.5
			c-0.3,0.3-0.6,0.7-0.9,1.1c-0.5,0.6-0.8,1.3-1.2,2c-0.2,0.5-0.5,1.1-0.7,1.6c-0.5,1.4-0.7,3-0.7,4.7c0,1,0.1,2.1,0.3,3.1
			c0.1,0.4,0.2,0.8,0.4,1.2c0.3,0.9,0.8,1.8,1.4,2.6c0.2,0.3,0.5,0.6,0.7,0.9c0.9,1,2,1.7,3.2,2.2s2.6,0.8,4.2,0.8c1,0,2-0.1,3-0.3
			c1.3-0.3,2.5-0.8,3.6-1.4c0.1,0,0.1-0.1,0.2-0.1c1.8-1.2,3.2-2.8,4.1-4.7c-2.8-1.4-5.2-3.5-7-6.1c-1.8-2.7-2.7-5.6-2.7-8.9
			c0-0.9,0.1-1.9,0.3-2.8c0.3-1.4,0.9-2.7,1.7-3.7c0.6-0.7,1.2-1.3,2.1-1.8s2-0.8,3.2-0.8c1.3,0,2.5,0.3,3.7,0.9
			c1.2,0.6,2.2,1.6,3.1,2.9c0.7,1.1,1.4,2.5,1.8,4.1c0.1,0.3,0.2,0.6,0.3,0.9c0.4,1.7,0.7,3.8,0.8,6.1c0,0.4,0,0.8,0,1.2
			c0,1.5-0.2,3-0.6,4.7c0.3,0,0.6,0.1,0.9,0.1h0.9c0.8,0,1.6,0,2.3-0.1c0.7-0.1,1.4-0.2,2.1-0.4c1.3-0.4,2.4-0.9,3.5-1.7
			c0.8-0.6,1.5-1.2,2.1-1.9c0.3-0.3,0.5-0.6,0.7-0.9c0.5-0.7,0.9-1.4,1.3-2.1c0.2-0.4,0.4-0.8,0.7-1.2c0-0.1,0.1-0.3,0.1-0.4
			c0.6-1.4,1.2-2.7,1.9-4.1c1.5-3,2.8-5.2,4.2-6.9c0.4-0.6,0.9-1.1,1.5-1.6c1.4-1.3,2.8-1.9,4.2-1.9c0.4,0,0.9,0,1.3,0.2
			c0.5,0.1,1,0.3,1.4,0.7c0.7,0.5,1.3,1.1,1.7,1.8c0.1,0.1,0.1,0.2,0.2,0.3c0.3,0.7,0.6,1.4,0.8,2.1c0.1,0.3,0.1,0.5,0.2,0.8
			c0.2,1.1,0.3,2.2,0.3,3.3c0,0.8-0.1,2.1-0.2,3.8v0.1c-0.1,0.9-0.1,1.8-0.2,2.8s-0.2,2-0.3,2.9c-0.2,2-0.4,4-0.5,6
			c0,0.5-0.1,1-0.1,1.4c-0.1,1.4-0.2,2.5-0.3,3.5l0,0c0.4-0.8,0.8-1.6,1.2-2.4c0.5-0.9,0.9-1.8,1.4-2.6c1-1.9,2.1-3.8,3.2-5.6
			c1.2-1.9,2.3-3.8,3.6-5.6c1.2-1.8,2.6-3.6,4-5.3c0.5-0.6,1-1.1,1.6-1.6s1.2-1,1.7-1.4c0.3-0.2,0.6-0.4,0.9-0.5
			c0.5-0.3,1.1-0.5,1.7-0.7c0.8-0.2,1.6-0.4,2.3-0.4c0.8,0,1.5,0.1,2.2,0.3c1.4,0.4,2.5,1.2,3.3,2.4c0.7,1.1,1.2,2.3,1.5,3.6
			c0.2,1,0.3,2,0.3,3c0,0.2,0,0.5,0,0.7c0,0.4-0.1,0.9-0.1,1.5c0,0.4-0.1,0.9-0.1,1.3c0,0.5-0.1,1-0.1,1.4c-0.1,1-0.1,2-0.2,3
			c0,0.6-0.1,1.2-0.1,1.8c0,0.3,0,0.7,0,1c0,0.8,0,1.6,0.1,2.4c0,0.3,0.1,0.5,0.1,0.8c0.1,0.5,0.1,0.9,0.2,1.3
			c0.1,0.5,0.3,0.9,0.4,1.3l0,0c0.2,0.4,0.4,0.8,0.7,1.1c0.2,0.3,0.5,0.5,0.8,0.7s0.7,0.4,1.2,0.5c0.3,0.1,0.7,0.1,1,0.1
			c0.1,0,0.2,0,0.3,0c1.2,0,2.4-0.3,3.4-0.8c0.7-0.3,1.3-0.8,1.9-1.2c1.4-1.2,2.8-2.4,3.9-3.8c0.3-0.3,0.6-0.7,0.8-1
			c1.3-1.7,2.4-3.4,3.5-5.2c0.1-0.2,0.2-0.4,0.3-0.5c0.3-0.6,0.6-1.2,0.9-1.7c0.6-1.1,1.1-2.1,1.4-2.8c0-0.1,0.1-0.1,0.1-0.2
			c0.1-0.3,0.3-0.6,0.6-0.8c0.1,0,0.1-0.1,0.2-0.2c0.3-0.6,0.6-1.1,0.8-1.7c0.6-1.3,1.1-2.5,1.5-3.6c0.6-1.7,1.1-3.5,1.4-5.3
			c0-0.1,0-0.1,0-0.2c-0.1-0.4-0.2-0.7-0.3-1.1c-0.1-0.3-0.2-0.7-0.2-1c-0.1-0.2-0.1-0.4-0.1-0.7c-0.2-0.8-0.2-1.5-0.2-2.3
			c0-1.5,0.3-2.8,1-3.7s1.6-1.4,2.8-1.4c1.1,0,2,0.5,2.6,1.4c0.4,0.6,0.7,1.3,0.8,2c0.1,0.5,0.1,0.9,0.1,1.4c0,0.8-0.1,1.5-0.2,2.2
			c0,0.2-0.1,0.4-0.1,0.6c-0.1,0.6-0.3,1.3-0.4,2.1c0,0,0,0,0,0.1c0.5,1.2,1.1,2.5,1.6,3.7c0.6,1.2,1.1,2.3,1.7,3.3l0,0
			c0.5,1,1.1,2,1.6,2.9s0.9,1.8,1.4,2.7c0.4,0.8,0.8,1.6,1.2,2.5c0.3,0.8,0.7,1.5,0.9,2.3c0.6,1.5,0.8,3,0.8,4.5
			c0,1.9-0.4,3.8-1.2,5.6c-0.7,1.4-1.6,2.6-2.8,3.6c-0.4,0.3-0.8,0.6-1.2,0.9c0.2,0,0.5,0.1,0.7,0.1h0.7c2.7,0,5.2-0.6,7.5-1.8
			s4.4-2.8,6.2-4.7c1.9-2,3.5-4.1,4.9-6.4c1.2-1.9,2.2-3.9,3.2-5.9c0.2-0.4,0.3-0.7,0.5-1.1c0.1-0.2,0.2-0.5,0.4-0.7
			c0.4-0.6,1-0.9,1.6-0.9c0.3,0,0.6,0,0.8,0.1c0.4,0.1,0.8,0.4,1.1,0.7c0.2,0.3,0.4,0.6,0.5,0.9c0.1,0.3,0.2,0.6,0.2,0.9
			c0,0.4-0.1,0.7-0.2,1c-0.5,1.3-1.2,2.7-2,4.3c-0.6,1-1.1,2.1-1.8,3.1c-0.4,0.6-0.8,1.3-1.2,1.9c-1,1.5-2.1,2.9-3.3,4.2
			c-0.2,0.3-0.5,0.5-0.7,0.8c-1.5,1.6-3.2,3.1-5.1,4.4c-1.9,1.3-4,2.3-6.2,3.1c-1.7,0.6-3.4,0.9-5.2,1.1c-0.7,0.1-1.5,0.1-2.2,0.1
			c-2.3,0-4.5-0.3-6.7-0.9c-0.8-0.2-1.5-0.5-2.2-0.8c-2.8-1.1-5-2.9-6.7-5.4c-0.2-0.2-0.3-0.5-0.3-0.8c-0.1-0.2-0.1-0.4-0.1-0.6
			c0-0.7,0.3-1.3,0.8-1.8c0.2-0.2,0.5-0.4,0.8-0.6c0.3-0.2,0.7-0.2,1.1-0.2s0.8,0.1,1.1,0.2c0.3,0.1,0.6,0.3,0.8,0.5
			c0,0,0,0,0.1,0.1s0.2,0.2,0.4,0.4c0.1,0.1,0.2,0.2,0.3,0.2c0.2,0.1,0.4,0.3,0.7,0.5c0.4,0.3,0.9,0.5,1.4,0.7s1.1,0.3,1.7,0.3
			c0.4,0,0.9,0,1.3-0.1c0.6-0.1,1.1-0.3,1.5-0.5h0.1c0.5-0.3,0.9-0.6,1.3-1c0.2-0.2,0.4-0.4,0.6-0.7c0.5-0.7,0.8-1.4,1-2.2
			c0.1-0.3,0.1-0.5,0.2-0.8c0.1-0.4,0.1-0.8,0.1-1.2c0-1.2-0.2-2.3-0.6-3.5c-0.4-1.1-0.8-2.2-1.3-3.2c-0.1-0.1-0.1-0.2-0.1-0.3
			c-0.5-0.9-0.9-1.8-1.4-2.7c-0.2-0.3-0.3-0.6-0.5-0.9c-0.7-1.3-1.3-2.5-1.9-3.9c-0.3,0.7-0.6,1.5-1,2.3c0,0.1-0.1,0.1-0.1,0.2
			c-0.3,0.6-0.5,1.2-0.8,1.8c-0.2,0.4-0.4,0.8-0.6,1.1s-0.3,0.5-0.5,0.8c-0.1,0.1-0.1,0.2-0.2,0.2c0,0.1-0.1,0.1-0.1,0.2
			c-0.2,0.4-0.6,1.1-1,2c-0.2,0.5-0.5,0.9-0.7,1.4c-0.4,0.8-1,1.7-1.5,2.6c-0.6,0.9-1.1,1.8-1.7,2.6c-0.5,0.7-1,1.5-1.5,2.2
			c-1.2,1.7-2.6,3.2-4.1,4.6c-1.5,1.4-3.1,2.6-4.9,3.5c-1.7,0.9-3.6,1.4-5.5,1.4c-0.7,0-1.4,0-2.2-0.2c-0.8-0.1-1.5-0.3-2.1-0.6
			c-0.3-0.1-0.7-0.3-1-0.5c-1.3-0.8-2.4-1.9-3.2-3.2c-0.7-1.2-1.2-2.6-1.5-4c0-0.2-0.1-0.3-0.1-0.5c-0.3-1.6-0.4-3.2-0.4-4.8
			c0-0.3,0-0.7,0-1c0-0.4,0-0.8,0.1-1.2c0-0.1,0-0.1,0-0.2c0.1-0.6,0.1-1.3,0.2-1.9c0-0.3,0.1-0.6,0.1-0.9c0.1-1,0.2-2,0.3-2.9
			c0.1-1,0.1-1.9,0.1-2.8c0-0.3,0-0.7,0-1c-0.1-1-0.3-1.6-0.7-2c-0.4-0.4-0.7-0.7-1.1-0.8c-0.1,0-0.2,0-0.2,0
			c-0.3,0-0.6,0.1-0.9,0.2c-0.5,0.2-1,0.5-1.6,1c-0.1,0-0.1,0.1-0.2,0.2c-0.4,0.4-0.9,0.8-1.3,1.2s-0.8,0.9-1.2,1.4
			c-0.2,0.2-0.4,0.5-0.6,0.7c-0.6,0.8-1.2,1.7-1.8,2.5c-0.5,0.7-1,1.5-1.5,2.2c-1.1,1.7-2.2,3.4-3.2,5.2c-0.5,0.8-0.9,1.7-1.4,2.5
			c-0.4,0.8-0.9,1.6-1.3,2.4c-0.8,1.6-1.5,2.8-2,3.9c-0.8,1.7-1.6,2.9-2.5,3.6c-0.1,0.1-0.3,0.2-0.4,0.3c-0.4,0.3-0.8,0.5-1.3,0.7
			s-1.1,0.3-1.7,0.3c-0.5,0-1-0.1-1.5-0.2c-0.7-0.2-1.3-0.5-1.9-1s-0.9-1.1-1.1-1.8c-0.1-0.5-0.2-1-0.2-1.7c0-0.1,0-0.2,0-0.3
			c0-0.4,0.1-0.9,0.1-1.7c0-0.4,0.1-0.8,0.1-1.2c0-0.3,0.1-0.7,0.1-1.1c0-0.4,0.1-0.8,0.1-1.2c0.1-1.3,0.3-2.8,0.4-4.3
			s0.3-3,0.4-4.6c0.1-0.7,0.1-1.5,0.2-2.2s0.1-1.4,0.2-2c0.1-1.3,0.1-2.4,0.1-3.3c0-0.9,0-1.8-0.1-2.7c0-0.2,0-0.4-0.1-0.6
			c0-0.2,0-0.4-0.1-0.6c-0.1-0.7-0.3-1.2-0.5-1.3c-0.1,0-0.2,0.1-0.3,0.2c-0.4,0.3-1.1,1.1-1.9,2.4c0,0,0,0,0,0.1
			c-0.3,0.5-0.6,0.9-0.9,1.4c-0.9,1.7-2.1,4-3.3,7l0,0c0,0,0,0,0,0.1s0,0.1,0,0.1c-0.1,0.2-0.2,0.4-0.3,0.6
			c-0.1,0.2-0.2,0.4-0.3,0.6c-0.8,1.4-1.8,2.8-2.8,4c-1.1,1.3-2.3,2.4-3.8,3.3c-1.2,0.8-2.5,1.4-3.9,1.9c-0.3,0.1-0.7,0.2-1,0.3
			c-1.8,0.6-3.8,0.8-6.1,0.8c-1.2,0-2.2-0.1-3.2-0.3c-0.7,1.4-1.6,2.7-2.6,3.9s-2.2,2.2-3.5,3.1c-1.2,0.8-2.6,1.5-4,1.9
			c-0.2,0-0.3,0.1-0.4,0.2c-1.6,0.5-3.4,0.8-5.3,0.8c-1.3,0-2.7-0.1-4-0.5c-0.8-0.2-1.5-0.4-2.2-0.7c-1.8-0.7-3.5-1.8-4.9-3.2
			c-1.3-1.2-2.3-2.7-3-4.3c-0.1-0.2-0.2-0.4-0.3-0.6c-0.3-0.8-0.5-1.5-0.7-2.3c-0.9,1.3-1.9,2.7-3,3.9c-1.2,1.4-2.4,2.7-3.8,4
			c-0.1,0.1-0.3,0.2-0.4,0.4c-1.1,0.9-2.2,1.7-3.4,2.4c-0.4,0.2-0.8,0.5-1.2,0.7c-1,0.5-2.1,0.9-3.2,1c-0.6,0.1-1.1,0.1-1.7,0.1
			c-1,0-2-0.1-3-0.3c-0.9-0.2-1.8-0.5-2.7-1c-1.6-0.9-3-2.1-4.1-3.6c-0.8-1.1-1.5-2.3-1.9-3.5c-0.2-0.6-0.4-1.2-0.6-1.7
			c-0.3-1.2-0.6-2.5-0.7-3.7c-0.1,0.2-0.3,0.4-0.4,0.6c-0.4,0.7-0.9,1.4-1.4,2c-1.2,1.7-2.5,3.2-3.9,4.6c-1.3,1.2-2.7,2.3-4.2,3.2
			c-0.2,0.1-0.3,0.2-0.5,0.3c-1.6,0.9-3.4,1.4-5.3,1.4c-3.2,0-6.4-1.1-8.9-3.1s-4.7-4.8-6.5-8.3c-0.1-0.2-0.2-0.3-0.2-0.5
			c-0.4-0.9-0.8-1.8-1.2-2.8c-0.1,0.2-0.2,0.3-0.3,0.5c-0.5,0.8-0.9,1.6-1.5,2.3c-0.6,0.8-1.1,1.7-1.7,2.5c-1.2,1.7-2.6,3.2-4.2,4.6
			c-1.5,1.4-3.2,2.6-5,3.5s-3.8,1.4-5.8,1.4c-1.1,0-2.2-0.1-3.3-0.4c-1.4-0.4-2.6-1-3.7-1.9s-2-2-2.7-3.2c-0.6-1-1.1-2.2-1.5-3.4
			c-1.7,2.7-3.6,4.7-5.8,6.3c-0.8,0.6-1.8,1.1-2.7,1.5c-1.3,0.5-2.6,0.8-4,0.8c-0.9,0-1.8-0.1-2.7-0.3c-0.7-0.2-1.5-0.4-2.1-0.7
			c-1.4-0.7-2.7-1.6-3.7-2.8c-0.8-0.9-1.4-1.9-1.9-3c-0.2-0.4-0.3-0.8-0.5-1.3c-0.3-0.9-0.5-1.8-0.6-2.8c-0.8,1.2-1.7,2.4-2.5,3.5
			c-0.1,0.1-0.2,0.2-0.2,0.3c-1.2,1.5-2.6,2.9-4.1,4.2c-1.4,1.2-2.9,2.1-4.5,2.9c-0.1,0-0.1,0-0.2,0.1c-1.6,0.8-3.4,1.2-5.3,1.2
			c-1.5,0-2.9-0.2-4.3-0.8c-1.1-0.4-2.2-1-3.1-1.8c-1.3-1.1-2.4-2.4-3.4-3.7c-0.7-1-1.3-2-1.8-3c-0.9-1.7-1.6-3.5-2.3-5.4
			c-0.4-1.1-0.7-2.2-1-3.3c-0.4,0.6-0.9,1.3-1.4,1.9c-1.1,1.3-2.3,2.4-3.8,3.3c-1.2,0.8-2.5,1.4-3.9,1.9c-0.3,0.1-0.7,0.2-1,0.3
			C1294.3,713.5,1292.3,713.7,1290,713.7z M438.8,692.7c-0.2,1.3-0.4,2.4-0.7,3.5c-0.1,0.5-0.2,0.9-0.4,1.3
			c-0.1,0.4-0.2,0.8-0.3,1.2c0,0.1-0.1,0.2-0.1,0.3c-0.1,0.2-0.1,0.4-0.2,0.6c-0.2,0.5-0.4,1-0.5,1.4c0,0.1,0,0.1-0.1,0.2
			c-0.1,0.4-0.2,0.6-0.3,0.7c-0.4,1-1.1,1.5-2.1,1.6c-0.1,0-0.2,0-0.4,0c-0.5,0-1-0.2-1.5-0.5c-0.1-0.1-0.3-0.2-0.4-0.3
			c-0.3-0.3-0.5-0.6-0.7-1c-0.1-0.3-0.2-0.6-0.2-0.9c0-0.1,0-0.2,0-0.2c0-0.2,0.1-0.3,0.1-0.4l0,0c0,0,0-0.1,0.1-0.1
			c0.1-0.2,0.2-0.4,0.4-0.7c0-0.1,0.1-0.2,0.1-0.4c0.1-0.3,0.2-0.6,0.4-1.1c0.1-0.2,0.1-0.5,0.2-0.7c0.1-0.3,0.2-0.5,0.2-0.8
			c0.2-0.9,0.5-2.2,0.9-3.7c-0.8,0-1.6,0-2.4-0.1c0,0-0.1,0-0.2,0c-0.6,0-1.2-0.1-1.8-0.3c-0.2-0.1-0.4-0.1-0.6-0.2
			c-0.7-0.3-1.4-0.7-1.8-1.3c-0.2-0.3-0.4-0.6-0.5-1c-0.1-0.3-0.1-0.6-0.2-1c0-0.2,0-0.4,0-0.6c0-0.3,0-0.5,0.1-0.8
			c0.1-0.7,0.3-1.5,0.6-2.4c0.5-1.3,1.1-2.7,1.8-4c0.5-0.8,1-1.5,1.5-2.2c0.3-0.4,0.7-0.8,1-1.2c0.3-0.3,0.5-0.5,0.9-0.7
			c0.3-0.2,0.7-0.4,1-0.5s0.7-0.2,1-0.2c1.1,0,2,0.4,2.7,1.2c0.5,0.5,0.9,1.1,1.2,1.8c0.2,0.4,0.3,0.7,0.5,1.1
			c0.4,1.2,0.7,2.3,0.8,3.5c0,0,0,0,0,0.1c0.2,1.3,0.2,2.3,0.2,3.3c0.8,0,1.6,0,2.4,0c0.4,0,0.8,0,1.2,0c0.4,0,0.7,0,1.1,0
			c0.8,0,1.6,0,2.4,0.2c1.6,0.2,2.9,0.8,3.9,1.6c1.4,1.2,2.1,3.1,2.1,5.7c0,0.8,0,1.7-0.1,2.5c0,0.3-0.1,0.6-0.1,0.9
			c-0.1,1-0.3,2.1-0.4,3.1c0,0.2,0,0.3-0.1,0.5c-0.2,1.2-0.4,2.4-0.5,3.7c-0.1,1.2-0.2,2.4-0.2,3.6c0,0.6,0,1.2,0.1,1.7
			c0.1,0.6,0.2,1.1,0.3,1.6c0.1,0.3,0.2,0.6,0.3,0.8c0.2,0.5,0.4,0.9,0.7,1.3c0.3,0.5,0.6,0.9,1,1.2c0,0,0,0,0.1,0.1
			c0.4,0.3,0.8,0.6,1.2,0.9c0.4,0.2,0.7,0.4,1.1,0.5c0.3,0.1,0.7,0.2,1,0.3c0.4,0.1,0.7,0.1,1,0.1c0.1,0,0.1,0,0.2,0
			c1.8,0,3.5-0.5,5-1.4c0.3-0.2,0.5-0.3,0.8-0.5c1.6-1.2,3.1-2.5,4.4-4c0.2-0.2,0.4-0.5,0.6-0.7c1.5-1.8,2.9-3.8,4.1-5.8
			c0.4-0.7,0.9-1.5,1.3-2.2s0.8-1.4,1.2-2.1c0.2-0.4,0.4-0.8,0.6-1.1c0.2-0.4,0.6-0.7,1-1c0.1,0,0.1-0.1,0.2-0.1
			c0.5-1,1.1-1.9,1.8-2.8c0.7-1,1.5-1.9,2.4-2.7c2-1.9,4.1-3.3,6.5-4.2c1.2-0.5,2.4-0.8,3.7-1.1c1-0.2,2.1-0.3,3.1-0.3
			c0.8,0,1.7,0.1,2.5,0.2c0.5,0.1,1.1,0.2,1.6,0.4c1.1,0.3,2,0.7,2.8,1.1c0.1,0.1,0.3,0.1,0.4,0.2c0.9,0.5,1.5,0.9,2,1.3l0,0
			c0.1,0,0.1,0.1,0.2,0.1c0.4,0.3,0.6,0.5,0.6,0.5c0.2,0.2,0.4,0.5,0.5,0.7c0.2,0.4,0.3,0.8,0.3,1.2c0,0.7-0.3,1.3-0.7,1.8l0,0
			c-0.5,0.5-1.1,0.8-1.9,0.8c-0.4,0-0.8-0.1-1.1-0.2c-0.3-0.1-0.6-0.3-0.8-0.5c-0.1-0.1-0.2-0.2-0.5-0.4c-0.1,0-0.1-0.1-0.2-0.1
			c-0.1-0.1-0.3-0.2-0.4-0.3c-0.3-0.2-0.6-0.3-1-0.5c-0.5-0.3-1.2-0.5-1.9-0.7c0,0-0.1,0-0.2,0c-0.4-0.1-0.8-0.2-1.3-0.2
			c-0.4,0-0.9-0.1-1.4-0.1l0,0c-1.5,0-3.1,0.3-4.7,1c-1.4,0.5-2.7,1.3-3.8,2.3c-0.3,0.2-0.5,0.5-0.8,0.7c-0.9,0.9-1.7,1.9-2.3,2.9
			c-0.4,0.7-0.8,1.5-1.2,2.2c-0.5,1.2-0.9,2.4-1.1,3.6c-0.2,1.1-0.3,2.3-0.3,3.5c0,0.1,0,0.2,0,0.3c0,0.9,0.1,1.8,0.3,2.7
			c0.2,0.8,0.5,1.7,1,2.4c0,0,0,0,0,0.1c0.5,0.7,1.1,1.3,1.9,1.8c0.5,0.3,0.9,0.4,1.5,0.5c0.4,0.1,0.9,0.1,1.4,0.2
			c0.1,0,0.1,0,0.2,0c0.9,0,1.9-0.3,3-0.8c0.6-0.3,1.2-0.7,1.7-1.1c0.5-0.4,0.9-0.8,1.4-1.3l0.1-0.1c1-1.1,1.8-2.4,2.6-4.1
			c0-0.1,0.1-0.2,0.2-0.3c0.8-1.7,1.4-3.6,1.7-5.8c0-0.2,0-0.3,0.1-0.5c0.1-0.7,0.4-1.2,0.9-1.6c0.5-0.4,1.1-0.7,1.9-0.7
			c0.6,0,1.2,0.2,1.6,0.6l0.1,0.1c0.2,0.2,0.4,0.5,0.6,0.8c0.1,0.3,0.2,0.6,0.2,0.9c0,0.7,0.1,1.6,0.2,2.7c0,0.4,0.1,0.7,0.1,1.1
			c0.1,1.6,0.5,3.2,1,4.8c0.3,1,0.8,2,1.4,3c0.3,0.4,0.6,0.8,0.9,1.2c0.8,1,2,1.6,3.3,1.7c0.3,0,0.6,0,0.9,0c0.9,0,1.8-0.2,2.6-0.5
			c0.3-0.1,0.5-0.2,0.8-0.4c0.7-0.4,1.4-0.8,2.1-1.4c0.4-0.3,0.8-0.7,1.2-1c0.8-0.8,1.6-1.6,2.3-2.5c0.2-0.3,0.5-0.6,0.7-0.9
			c1-1.2,1.9-2.5,2.7-3.9c0.5-0.8,1-1.6,1.4-2.4c0.2-0.5,0.5-0.9,0.7-1.4c0.2-0.4,0.4-0.9,0.7-1.3c0.2-0.3,0.3-0.7,0.5-1
			s0.3-0.6,0.4-0.9s0.3-0.6,0.5-0.8s0.3-0.3,0.5-0.4c0,0,0,0,0.1,0c0.4-1,0.8-2,1.2-3s0.7-2,1-3.1c0.2-0.8,0.4-1.7,0.6-2.5
			c0.2-0.8,0.4-1.6,0.5-2.3c0.1-0.4,0.2-0.8,0.2-1.3c0.1-0.5,0.2-1,0.2-1.5c0.1-0.9,0.2-1.7,0.3-2.4c0-0.1,0-0.2,0-0.2
			c0-0.1,0-0.2,0-0.4c0-0.7,0-1.1,0-1.2l0,0c0-0.7,0.3-1.3,0.8-1.8l0,0c0.5-0.5,1.2-0.8,1.9-0.8l0,0c0.7,0,1.4,0.3,1.9,0.7
			c0.5,0.5,0.8,1.1,0.8,1.8V702c1.1-1.8,2.2-3.6,3.3-5.4c0.7-1.1,1.4-2.1,2.1-3.1c0.4-0.6,0.9-1.1,1.3-1.7c0.7-0.8,1.5-1.6,2.3-2.2
			c0.5-0.4,1-0.8,1.6-1.1c1.4-0.9,3-1.3,4.7-1.3c1.6,0,3.1,0.4,4.5,1.1c1.3,0.7,2.4,1.7,3.2,2.8c0.1,0.1,0.1,0.2,0.2,0.3
			c0.6,0.9,1.2,1.8,1.6,2.8c0.2,0.6,0.5,1.2,0.6,1.8c0.4,1.4,0.6,2.8,0.7,4.2c0,0.5,0,1,0,1.5c0,4-0.7,7.5-2.1,10.4
			c-0.1,0.2-0.2,0.4-0.3,0.6c-0.6,1.2-1.4,2.4-2.2,3.5c-1,1.3-2.2,2.4-3.5,3.3l-0.1,0.1h0.3c1.9,0,3.8-0.3,5.6-0.9
			c0.7-0.2,1.4-0.6,2.1-0.9c2.3-1.2,4.5-2.8,6.3-4.7c1.9-1.9,3.5-4.1,5-6.5c1-1.6,1.9-3.2,2.8-4.8c0.4-0.7,0.8-1.4,1.1-2.1
			c0.1-0.1,0.1-0.3,0.2-0.4c0,0,0,0,0-0.1c0-4.1,0-8.2,0-12.3c0-8,0.1-15.4,0.4-22.3c0.1-3.3,0.2-6.5,0.4-9.8c0.2-3,0.4-5.9,0.7-8.8
			c0.2-2,0.4-4,0.7-5.9s0.6-3.7,0.9-5.4c0.2-1,0.4-1.9,0.7-2.9c1-3.9,2.3-7,3.8-9.1c0.5-0.7,1-1.3,1.7-1.8c1.2-0.9,2.6-1.4,4.2-1.4
			c0.9,0,1.7,0.1,2.5,0.3c0.9,0.3,1.8,0.7,2.5,1.3c0.9,0.7,1.7,1.6,2.4,2.6c0.4,0.6,0.7,1.2,1,1.8c0.5,1,0.9,2.1,1.2,3.2
			c0.3,1.1,0.5,2.1,0.7,3.2c0.3,2,0.5,4,0.5,6c0,0.6,0,1.2,0,1.8c0,5.4-0.5,10.8-1.5,16.2c-1,5.3-2.4,10.4-4.1,15.5
			c-1.7,5-3.7,9.9-6,14.7s-4.7,9.4-7.2,13.9v3v3.5v3.3v2.4l0.1,3.3c0.4-0.8,0.8-1.7,1.2-2.5c0.5-0.9,0.9-1.8,1.4-2.7
			c0.9-1.7,1.8-3.3,2.8-4.9c0.1-0.2,0.3-0.5,0.4-0.7c1.2-2,2.4-3.9,3.7-5.8c1.2-1.7,2.4-3.4,3.8-5.1c0.1-0.1,0.2-0.2,0.3-0.3
			c0.5-0.6,1-1.1,1.6-1.6s1.2-1,1.7-1.4c0.3-0.2,0.6-0.4,0.9-0.5c0.5-0.3,1.1-0.5,1.7-0.7c0.8-0.2,1.6-0.4,2.3-0.4
			c0.5,0,1.1,0,1.6,0.2c0.6,0.1,1.1,0.3,1.6,0.6c0.9,0.5,1.7,1.2,2.3,2c0.4,0.6,0.8,1.2,1,1.9c0.1,0.3,0.2,0.7,0.3,1
			c0.3,1.1,0.5,2.3,0.5,3.6c0,0.4,0,0.7,0,1.1c0,0.9-0.1,2-0.3,3.2c-0.2,1.5-0.3,3-0.3,4.5c0,0.4,0,0.7,0,1.1c0,1.1,0.1,2.2,0.2,3.3
			c0.1,0.5,0.1,1,0.2,1.5c0.1,0.5,0.2,0.9,0.4,1.4c0.3,0.9,0.8,1.6,1.4,2.1s1.4,0.8,2.4,0.8c0.8,0,1.7-0.2,2.5-0.5
			c0.3-0.1,0.7-0.3,1-0.5c0.7-0.4,1.4-0.9,2.1-1.4c0.5-0.4,0.9-0.7,1.3-1.1c1.1-1,2.2-2.2,3.2-3.5c0.8-1.1,1.7-2.2,2.4-3.4
			c0.1-0.2,0.2-0.3,0.3-0.5c0.5-0.8,1-1.5,1.4-2.3c0.2-0.5,0.5-0.9,0.7-1.3c0.2-0.3,0.3-0.6,0.4-0.8c0.4-0.8,0.8-1.5,1.1-2.1
			c0.1-0.2,0.2-0.3,0.3-0.5c0.2-4,0.6-7.9,1.1-11.8c0.1-0.7,0.4-1.2,0.9-1.7c0.4-0.4,0.9-0.6,1.5-0.7c0.2,0,0.3,0,0.5,0
			c0.6,0,1.2,0.2,1.7,0.7l0.1,0.1c0.5,0.5,0.7,1.2,0.7,1.8c0,0.1,0,0.1,0,0.2c0,0.4-0.1,1.2-0.2,2.3c-0.1,1-0.2,2-0.3,3.3
			c0,0.6-0.1,1.2-0.2,1.7c-0.2,1.9-0.3,4-0.4,6.1c-0.1,1-0.1,2.1-0.1,3.1s0,1.9,0,2.8c0,0.7,0,1.5,0.1,2.2c0,0.7,0.1,1.4,0.2,2.1
			c0.1,0.6,0.2,1.2,0.4,1.7s0.4,1,0.6,1.5c0.4,0.8,0.8,1.5,1.3,2c0.3,0.3,0.6,0.6,1,0.9c0.4,0.3,0.9,0.6,1.3,0.7
			c0.1,0,0.1,0,0.2,0.1c0.5,0.2,1,0.3,1.5,0.3c0.3,0,0.7,0.1,1,0.1c0.8,0,1.5-0.1,2.2-0.4c0.5-0.2,1.1-0.5,1.6-0.8
			c0.1-0.1,0.2-0.1,0.3-0.2c0.7-0.4,1.3-0.9,1.9-1.4c0.8-0.7,1.7-1.5,2.5-2.5c1.5-1.6,2.9-3.6,4.4-5.8c0-0.1,0.1-0.2,0.2-0.2
			c1-1.5,1.8-3,2.7-4.5c0.6-1.1,1.2-2.2,1.8-3.4c0.2-0.3,0.4-0.6,0.6-0.8c0.1-0.1,0.2-0.2,0.3-0.2c0.1-0.4,0.2-0.8,0.3-1.2
			c0.5-1.4,1-2.7,1.8-4c0.5-0.8,1-1.6,1.6-2.4c1.4-1.8,3-3.2,4.9-4.3c1.9-1,3.8-1.6,6-1.6c1.6,0,3,0.3,4.3,0.8
			c0.8,0.3,1.5,0.7,2.2,1.2c0.4,0.3,0.8,0.6,1.1,0.9c0.9,0.8,1.6,1.8,2.1,2.9c0.5,1.1,0.8,2.1,0.8,3.2c0,1-0.1,2-0.4,2.9
			c-0.1,0.5-0.3,0.9-0.5,1.4c-0.2,0.3-0.3,0.7-0.5,1s-0.4,0.6-0.6,0.9c-0.2,0.3-0.5,0.5-0.8,0.8c-0.5,0.4-1,0.6-1.6,0.6
			c-0.3,0-0.6,0-0.9-0.1c-0.4-0.1-0.8-0.3-1.1-0.6c-0.5-0.5-0.8-1.2-0.8-1.8l0,0c0-0.2,0-0.3,0.1-0.5c0-0.2,0.1-0.3,0.2-0.5
			c0.2-0.3,0.4-0.6,0.6-0.9c0.1-0.2,0.2-0.3,0.3-0.5s0.2-0.4,0.3-0.7c0.1-0.2,0.1-0.4,0.2-0.5c0.1-0.3,0.1-0.7,0.1-1.2
			c0-0.7-0.2-1.3-0.7-1.9c-0.2-0.3-0.5-0.5-0.7-0.8c-0.7-0.6-1.6-1-2.5-1.1c-0.3,0-0.7-0.1-1-0.1c-1.3,0-2.6,0.4-3.8,1.2
			c-0.9,0.6-1.8,1.4-2.5,2.2c-0.2,0.3-0.5,0.6-0.7,0.9c-0.6,0.8-1,1.7-1.4,2.6c-0.3,0.7-0.5,1.4-0.8,2.1c-0.5,1.6-0.8,3.3-0.8,4.9
			c0,0.2,0,0.5,0,0.7c0,1.6,0.2,3.1,0.5,4.6c0.1,0.3,0.1,0.5,0.2,0.8c0.5,1.7,1.2,3.2,2.2,4.6c1,1.3,2.2,2.4,3.6,3.2
			c0.9,0.5,1.9,0.8,3,1c0.7,0.1,1.5,0.2,2.2,0.2c1.8,0,3.6-0.2,5.3-0.7c0.7-0.2,1.3-0.4,1.9-0.7c2.2-0.9,4.2-2.1,6-3.5
			c1.7-1.3,3.3-2.8,4.7-4.4c0,0,0.1-0.1,0.1-0.2c0.7-0.8,1.3-1.6,1.9-2.4c0.6-0.7,1.1-1.5,1.6-2.3c0.3-0.5,0.7-1,1-1.6
			c0.3-0.5,0.6-1,0.8-1.5c0.2-0.3,0.3-0.5,0.4-0.8c0.5-1.1,0.9-1.8,1-2.1c0.2-0.5,0.5-0.8,1-1.1c0.5-0.2,1-0.4,1.5-0.4
			c0.3,0,0.7,0,1,0.2c0.4,0.1,0.7,0.4,1,0.7c0.5,0.6,0.8,1.2,0.8,1.9c0,0.1,0,0.2,0,0.3c0,0.2-0.1,0.4-0.2,0.7v0.1
			c-0.1,0.2-0.2,0.3-0.2,0.5c-0.3,0.5-0.7,1.3-1.2,2.3c-0.3,0.5-0.6,1.1-0.9,1.6c-0.3,0.6-0.7,1.2-1.1,1.8c-0.3,0.4-0.5,0.8-0.8,1.2
			c-1.2,1.7-2.6,3.5-4.2,5.3c-1.6,1.8-3.4,3.4-5.4,4.8c-0.1,0-0.1,0.1-0.2,0.1c-2,1.4-4.1,2.6-6.3,3.5c-0.2,0.1-0.5,0.2-0.7,0.3
			c-2.2,0.8-4.5,1.3-6.8,1.4c-0.6,0-1.1,0-1.7,0c-1.3,0-2.6-0.1-3.8-0.4c-1.2-0.2-2.3-0.6-3.4-1.1c-2.1-1-3.9-2.3-5.4-4
			s-2.6-3.8-3.4-6.2c-0.4-1.2-0.6-2.3-0.8-3.5c-0.2,0.3-0.5,0.7-0.7,1c-1.1,1.7-2.3,3.3-3.6,4.8c-1.2,1.4-2.4,2.7-3.8,4
			c-0.1,0.1-0.3,0.2-0.4,0.4c-1.1,0.9-2.2,1.7-3.4,2.4c-0.4,0.2-0.8,0.5-1.2,0.7c-1,0.5-2.1,0.9-3.2,1c-0.6,0.1-1.1,0.1-1.7,0.1
			c-1,0-2-0.1-3-0.3c-0.9-0.2-1.8-0.5-2.7-1c-1.6-0.9-3-2.1-4.1-3.6c-0.8-1.1-1.5-2.3-1.9-3.5c-0.2-0.6-0.4-1.2-0.6-1.7
			c-0.3-1.2-0.5-2.4-0.7-3.6c-0.1,0.2-0.3,0.4-0.4,0.6c-0.5,0.7-1,1.3-1.4,2c-1.2,1.7-2.6,3.2-4.1,4.6c-1.3,1.3-2.9,2.4-4.5,3.3
			c-0.1,0.1-0.2,0.1-0.4,0.2c-1.7,0.9-3.6,1.4-5.5,1.4c-0.7,0-1.4,0-2.1-0.2c-1.2-0.2-2.3-0.6-3.2-1.2c-1.3-0.9-2.4-2.1-3.1-3.5
			c-0.6-1.1-1-2.2-1.3-3.4c-0.1-0.4-0.2-0.8-0.2-1.3c-0.2-1.5-0.4-2.9-0.4-4.4c0-0.2,0-0.4,0-0.6c0-0.5,0-1.1,0-1.6
			c0-0.3,0-0.7,0.1-1c0.1-0.9,0.2-1.9,0.2-2.8c0-0.5,0.1-0.9,0.1-1.3c0-0.4,0.1-0.8,0.1-1.3c0-0.3,0-0.6,0.1-0.9c0-0.2,0-0.4,0-0.6
			c0-0.2,0-0.4,0-0.6c0-1.4-0.2-2.4-0.6-2.9s-0.9-0.8-1.4-0.8c-0.3,0-0.6,0.1-0.9,0.2c-0.5,0.2-1,0.5-1.5,1c-0.1,0-0.1,0.1-0.2,0.2
			c-0.4,0.4-0.9,0.8-1.3,1.2c-0.4,0.4-0.8,0.9-1.2,1.4c-0.2,0.2-0.4,0.5-0.6,0.7c-0.6,0.8-1.2,1.7-1.8,2.5c-0.5,0.7-1,1.5-1.4,2.2
			c-1.1,1.7-2.1,3.5-3.1,5.2s-1.9,3.4-2.7,4.9c-0.2,0.4-0.4,0.8-0.6,1.1c-0.6,1.1-1,2-1.4,2.8c-0.3,0.5-0.5,1-0.8,1.5
			c-0.7,1.2-1.5,2-2.2,2.5c-0.3,0.2-0.6,0.4-0.9,0.5c-0.7,0.3-1.3,0.5-1.8,0.5c-1.5,0-2.6-0.6-3.4-1.7l0,0c-0.8-1.1-1.2-2.5-1.2-4.2
			v-4.4c0-0.6,0-1.2,0-1.8c-1.6,2.5-3.6,4.8-5.7,6.9c-2.3,2.2-4.9,4-7.8,5.3c-2.5,1.2-5.2,1.9-7.9,2c-0.5,0-1.1,0-1.6,0
			c-2.5,0-5-0.4-7.4-1.2c-2.3-0.7-4.5-2-6.3-3.6c-0.4-0.3-0.8-0.7-1.2-1.1c-0.2-0.2-0.3-0.4-0.5-0.6c-0.5-0.6-0.9-1.1-1.2-1.6
			c-0.1-0.1-0.1-0.2-0.1-0.3c-0.2-0.2-0.3-0.5-0.3-0.8c0-0.2-0.1-0.4-0.1-0.6c0-0.5,0.2-1,0.5-1.5c0-0.1,0.1-0.1,0.2-0.2
			c0-0.1,0.1-0.1,0.1-0.2l0,0c0,0,0,0,0.1,0c0,0,0,0,0.1,0l0,0c0.2-0.2,0.5-0.3,0.7-0.5c0.3-0.1,0.6-0.2,0.8-0.2h0.2
			c0.2,0,0.3,0,0.4,0c0,0,0,0,0.1,0l0,0l0,0l0,0c0,0,0,0,0.1,0l0,0c0.1,0,0.1,0,0.2,0c0.1,0,0.2,0.1,0.3,0.1l0,0l0,0l0,0
			c0.4,0.3,0.8,0.6,1.1,1c0.3,0.6,0.7,1.1,1.2,1.5c0.4,0.4,0.8,0.7,1.4,1c0.5,0.3,1,0.4,1.5,0.4c0.1,0,0.2,0,0.3,0
			c0.8,0,1.7-0.2,2.5-0.5c0.4-0.2,0.8-0.3,1.1-0.6c0.8-0.5,1.5-1,2.1-1.7c0.4-0.4,0.8-0.9,1.1-1.3c0.5-0.8,1-1.5,1.4-2.4
			c0.4-0.8,0.7-1.5,0.9-2.4c0.4-1.2,0.6-2.4,0.8-3.6c0.1-0.9,0.1-1.7,0.1-2.6c0-1.7-0.2-3.1-0.5-4.3c-0.1-0.5-0.3-0.9-0.5-1.3
			c-0.3-0.6-0.6-1.1-0.9-1.6c-0.5-0.6-1-1.1-1.5-1.5c-0.1-0.1-0.2-0.1-0.3-0.2c-0.6-0.3-1.2-0.5-1.8-0.5c-0.7,0-1.3,0.2-1.9,0.5
			c-0.4,0.2-0.8,0.5-1.3,0.8c-0.3,0.2-0.5,0.4-0.8,0.7c-1.3,1.3-2.6,3-3.9,5s-2.6,4.2-3.8,6.6c-1.2,2.4-2.5,4.7-3.8,7
			c0,3.7-0.1,7.4-0.2,11c-0.1,3.5-0.1,7-0.2,10.5c-0.1,3.3-0.2,6.6-0.3,9.9c-0.1,3-0.3,6.1-0.5,9.2c-0.4,5.9-1,11.2-1.7,15.9
			c-0.6,4-1.4,7.4-2.3,10.4c-0.2,0.6-0.4,1.2-0.6,1.8c-0.4,1.1-0.9,2.2-1.5,3.3s-1.2,2.1-1.8,2.9c-0.4,0.5-0.8,1-1.3,1.5
			c-1.7,1.7-4,2.7-6.5,2.7c-0.1,0-0.1,0-0.2,0c-0.7,0-1.5-0.1-2.3-0.3c-0.2,0-0.3-0.1-0.5-0.1c-1-0.3-2-1-2.9-2
			c-0.7-0.8-1.3-1.8-1.8-3c-0.2-0.4-0.3-0.8-0.5-1.3c-0.2-0.7-0.4-1.4-0.5-2.1c-0.1-0.8-0.2-1.6-0.3-2.5c-0.1-1-0.1-1.9-0.1-2.9
			c0-4,0.5-8.5,1.5-13.8c0.7-3.4,1.4-6.7,2.3-10c0.6-2.2,1.2-4.4,1.9-6.6c1.5-4.9,3.3-9.8,5.2-14.5c0.5-1.2,0.9-2.3,1.4-3.4
			c2.5-6.1,5.3-12.1,8.4-17.9c0-1.6,0-3.2,0-4.8c0-1.3,0-2.7,0-4c0-0.2,0-0.4,0-0.6c-0.2,0.3-0.5,0.5-0.8,0.7l0,0
			c-0.1,0.2-0.2,0.3-0.2,0.5c-0.1,0.2-0.2,0.4-0.3,0.6c-0.2,0.5-0.5,0.9-0.7,1.4c-0.3,0.5-0.6,1.1-0.9,1.6c-0.2,0.3-0.4,0.7-0.6,1
			c-0.6,1-1.2,1.9-1.8,2.8c-0.5,0.7-1,1.3-1.4,2c-1.2,1.7-2.6,3.2-4.2,4.6c-1.5,1.4-3.2,2.5-5,3.5c-1.7,0.9-3.6,1.4-5.6,1.4
			c-1.3,0-2.5-0.2-3.7-0.6c-1.2-0.4-2.3-1.1-3.3-2c-1.7-1.5-2.9-3.4-3.8-5.5c-0.1-0.3-0.3-0.7-0.4-1c-0.8,1.3-1.8,2.6-2.9,3.8
			c-0.9,1-1.9,1.8-3,2.5c-0.9,0.6-1.8,1.1-2.7,1.5c-1.3,0.5-2.6,0.8-4,0.8c-1.8,0-3.4-0.3-4.8-0.9c-1.4-0.6-2.6-1.5-3.7-2.7
			c-0.9-1-1.6-2.2-2.1-3.4c-0.1-0.2-0.2-0.4-0.2-0.6c-0.3-0.9-0.5-1.8-0.7-2.7c-0.9,1.2-1.8,2.4-2.8,3.5c-1.8,2-3.9,3.8-6.3,5.3
			c-2.3,1.4-4.9,2.2-7.6,2.2c-1.7,0-3.4-0.3-4.9-0.9c-1.5-0.6-2.9-1.5-4-2.7c-0.8-0.8-1.4-1.7-1.9-2.7c-0.3-0.5-0.5-1.1-0.8-1.7
			c-0.7-1.7-1-3.7-1-5.9c0-2.3,0.2-4.7,0.7-6.9c0.3-1.5,0.5-2.9,0.6-4.4c0.1-0.7,0.1-1.5,0.1-2.2c0-0.6-0.1-1-0.2-1.4
			c-0.1-0.2-0.2-0.4-0.4-0.6c-0.1-0.1-0.3-0.3-0.5-0.3c-0.5-0.2-1.2-0.3-2.2-0.3l0,0h-2.2c-0.4,0-0.8,0-1.2,0
			C439.7,692.6,439.2,692.6,438.8,692.7z M897.2,713.7c1,1.4,2.3,2.5,3.9,3.2c1.5,0.8,3.2,1.2,5.3,1.2c0.2,0,0.3,0,0.5,0
			c1.7,0,3.3-0.3,4.9-0.9c0.5-0.2,1-0.5,1.5-0.7c1.7-1,3.2-2.1,4.5-3.5c0.3-0.3,0.5-0.5,0.8-0.8c1.5-1.7,2.8-3.4,3.9-5.3
			c0.1-0.2,0.2-0.4,0.4-0.6c1.2-2.2,2.4-4.4,3.4-6.6c0.1-0.2,0.2-0.4,0.4-0.6c0.1-0.1,0.2-0.2,0.2-0.3c0.3-0.5,0.6-1.1,0.8-1.7
			c0.6-1.3,1.1-2.5,1.5-3.6c0.6-1.7,1.1-3.5,1.4-5.3c0-0.1,0-0.1,0-0.2c-0.1-0.4-0.2-0.7-0.3-1.1c-0.1-0.3-0.2-0.7-0.2-1
			c0-0.2-0.1-0.4-0.1-0.7c-0.1-0.8-0.2-1.5-0.2-2.3c0-1.5,0.3-2.8,1-3.7c0.7-1,1.6-1.4,2.8-1.4c1.1,0,2,0.5,2.6,1.4
			c0.4,0.6,0.7,1.3,0.8,2c0.1,0.5,0.1,0.9,0.1,1.4c0,0.8-0.1,1.5-0.2,2.2c0,0.2-0.1,0.4-0.1,0.6c-0.1,0.6-0.3,1.3-0.4,2.1
			c0,0,0,0,0,0.1c0.5,1.2,1.1,2.5,1.6,3.7s1.1,2.3,1.7,3.3l0,0c0.5,1,1,2,1.6,2.9c0.5,0.9,0.9,1.8,1.4,2.7c0.4,0.8,0.8,1.6,1.2,2.5
			c0.3,0.8,0.7,1.5,0.9,2.3c0.5,1.5,0.8,3,0.8,4.5c0,1.9-0.4,3.8-1.2,5.6c-0.7,1.4-1.6,2.6-2.8,3.6c-0.4,0.3-0.8,0.6-1.2,0.9
			c0.2,0,0.5,0.1,0.7,0.1h0.7c2.7,0,5.2-0.6,7.5-1.8s4.4-2.8,6.2-4.7c1.9-2,3.5-4.1,4.9-6.4c1.2-1.9,2.2-3.9,3.2-5.9
			c0-0.1,0.1-0.2,0.2-0.3c0.2-4.4,0.6-8.8,1.1-13.1c0.1-0.7,0.4-1.2,0.9-1.7c0.4-0.4,0.9-0.6,1.5-0.7c0.2,0,0.3,0,0.5,0
			c0.6,0,1.2,0.2,1.7,0.7l0.1,0.1c0.5,0.5,0.7,1.2,0.7,1.8c0,0.1,0,0.1,0,0.2c0,0.4-0.1,1.2-0.2,2.3c-0.1,1-0.2,2-0.3,3.3
			c0,0.6-0.1,1.2-0.2,1.7c-0.2,1.9-0.3,4-0.4,6.1c-0.1,1-0.1,2.1-0.1,3.1s0,1.9,0,2.8c0,0.7,0,1.5,0.1,2.2c0,0.7,0.1,1.4,0.2,2.1
			c0.1,0.6,0.2,1.2,0.4,1.7s0.4,1,0.6,1.5c0.4,0.8,0.8,1.5,1.3,2c0.3,0.3,0.6,0.6,1,0.9c0.4,0.3,0.9,0.6,1.3,0.7
			c0.1,0,0.1,0,0.2,0.1c0.5,0.2,1,0.3,1.5,0.3c0.3,0,0.7,0.1,1,0.1c0.8,0,1.5-0.1,2.2-0.4c0.5-0.2,1.1-0.5,1.6-0.8
			c0.1-0.1,0.2-0.1,0.3-0.2c0.7-0.4,1.3-0.9,1.9-1.4c0.8-0.7,1.7-1.5,2.5-2.5c1.5-1.6,2.9-3.6,4.4-5.8c0-0.1,0.1-0.2,0.2-0.2
			c1-1.5,1.8-3,2.7-4.5c0.6-1.1,1.2-2.2,1.8-3.4c0.2-0.5,0.6-0.8,1-1.1c0.1,0,0.2-0.1,0.2-0.1c0.5-1,1.1-1.9,1.8-2.8
			c0.7-1,1.5-1.9,2.4-2.7c2-1.9,4.1-3.3,6.5-4.2c1.2-0.5,2.4-0.8,3.7-1.1c1-0.2,2.1-0.3,3.2-0.3c0.8,0,1.7,0.1,2.5,0.2
			c0.5,0.1,1.1,0.2,1.6,0.4s1,0.3,1.5,0.5c0.6,0.2,1.2,0.5,1.7,0.7c0.6,0.3,1.1,0.6,1.5,0.9c0.2,0.1,0.4,0.3,0.6,0.4
			c0.1,0,0.1,0.1,0.2,0.2c0.4,0.3,0.6,0.5,0.6,0.5c0.2,0.2,0.4,0.5,0.6,0.8s0.2,0.7,0.2,1c0,0.7-0.3,1.3-0.7,1.8l0,0
			c-0.5,0.5-1.2,0.8-1.9,0.8c-0.5,0-0.9-0.1-1.3-0.3c-0.2-0.1-0.5-0.3-0.7-0.4c-0.2-0.1-0.3-0.2-0.5-0.4c-0.1-0.1-0.1-0.1-0.2-0.2
			c-0.1-0.1-0.3-0.2-0.4-0.3c-0.2-0.1-0.3-0.2-0.5-0.3c-0.1-0.1-0.2-0.1-0.3-0.2c-0.3-0.2-0.5-0.3-0.8-0.4c-0.3-0.1-0.6-0.2-1-0.3
			c-0.7-0.2-1.5-0.3-2.5-0.3c-0.8,0-1.5,0.1-2.2,0.2c-0.8,0.2-1.6,0.4-2.5,0.7c-1.4,0.5-2.7,1.2-3.8,2.1c-0.3,0.3-0.7,0.5-1,0.8
			c-0.9,0.9-1.8,1.8-2.4,2.9c-0.5,0.7-0.9,1.5-1.3,2.3c-0.9,2-1.4,4.3-1.5,7c0,0.2,0,0.5,0,0.7c0,2.2,0.5,4,1.5,5.4
			c0.7,1,1.8,1.7,3.1,1.9c0.5,0.1,1,0.2,1.6,0.1c0.6,0,1.1-0.1,1.7-0.2c0.5-0.1,0.9-0.3,1.4-0.5c0,0,0.1,0,0.2-0.1
			c0.6-0.3,1.2-0.7,1.7-1.1c0.5-0.4,1.1-0.9,1.6-1.5c0.6-0.6,1.1-1.3,1.5-2s0.9-1.5,1.2-2.4c0.8-1.8,1.3-3.9,1.7-6.3
			c0.1-0.7,0.4-1.2,0.9-1.6c0.5-0.4,1.2-0.7,1.9-0.7c0.3,0,0.6,0,0.8,0.1c0.4,0.1,0.8,0.4,1.1,0.7c0.5,0.6,0.7,1.2,0.7,1.9
			c0,0,0,0.8-0.1,2.1c0,0.4,0,0.7,0,1.1c0,0.8,0,1.8-0.1,2.8c0,0.5,0,1,0,1.5c0,1.1,0,2.1-0.1,3.2c0,1.5-0.1,3-0.1,4.7
			c0,1.5-0.1,3.1-0.1,4.6c0,1.6-0.1,3.3-0.1,4.9c2.6-3.3,5.1-6.6,7.5-10c4.5-6.3,8-11.9,10.4-16.7c0.2-0.4,0.4-0.8,0.6-1.2
			c0-0.2,0.1-0.3,0.1-0.5c0.6-1.4,1.2-2.7,1.9-4.1c1.5-3,2.8-5.2,4.2-6.9c0.4-0.6,0.9-1.1,1.5-1.6c1.4-1.3,2.8-1.9,4.2-1.9
			c0.4,0,0.9,0,1.3,0.2c0.5,0.1,1,0.3,1.4,0.7c0.7,0.5,1.3,1.1,1.7,1.8c0.1,0.1,0.1,0.2,0.2,0.3c0.3,0.7,0.6,1.4,0.8,2.1
			c0.1,0.3,0.1,0.5,0.2,0.8c0.2,1.1,0.3,2.2,0.3,3.3c0,0.8-0.1,2.1-0.2,3.8v0.1c-0.1,0.9-0.1,1.8-0.2,2.8s-0.2,2-0.3,2.9
			c-0.2,2-0.4,4-0.5,6c0,0.5-0.1,1-0.1,1.4c-0.1,1.4-0.2,2.5-0.3,3.5l0,0c0.4-0.8,0.8-1.6,1.2-2.4c0.5-0.9,0.9-1.8,1.4-2.6
			c1-1.9,2.1-3.8,3.2-5.6c1.2-1.9,2.3-3.8,3.6-5.6c1.2-1.8,2.6-3.6,4-5.3c0.5-0.6,1-1.1,1.6-1.6s1.2-1,1.7-1.4
			c0.3-0.2,0.6-0.4,0.9-0.5c0.5-0.3,1.1-0.5,1.7-0.7c0.8-0.2,1.6-0.4,2.3-0.4c0.8,0,1.5,0.1,2.2,0.3c1.4,0.4,2.5,1.2,3.3,2.4
			c0.7,1.1,1.2,2.3,1.5,3.6c0.2,1,0.3,2,0.3,3c0,0.2,0,0.5,0,0.7c0,0.4-0.1,0.9-0.1,1.5c0,0.4-0.1,0.9-0.1,1.3c0,0.5-0.1,1-0.1,1.4
			c-0.1,1-0.1,2-0.2,3c0,0.6-0.1,1.2-0.1,1.8c0,0.3,0,0.7,0,1c0,0.8,0,1.6,0.1,2.4c0,0.3,0.1,0.5,0.1,0.8c0.1,0.5,0.1,0.9,0.2,1.3
			c0.1,0.5,0.3,0.9,0.4,1.3l0,0c0.2,0.4,0.4,0.8,0.7,1.1c0.2,0.3,0.5,0.5,0.8,0.7s0.7,0.4,1.2,0.5c0.3,0.1,0.7,0.1,1,0.1
			c0.1,0,0.2,0,0.3,0c1.2,0,2.4-0.3,3.4-0.8c0.7-0.3,1.3-0.8,1.9-1.2c1.4-1.2,2.8-2.4,3.9-3.8c0.3-0.3,0.6-0.7,0.8-1
			c1.3-1.7,2.4-3.4,3.5-5.2c0.1-0.2,0.2-0.4,0.3-0.5c0.3-0.6,0.6-1.2,0.9-1.7c0.6-1.1,1.1-2.1,1.4-2.8c0-0.1,0.1-0.1,0.1-0.2
			c0.1-0.3,0.3-0.6,0.6-0.8c0.2-0.2,0.3-0.3,0.5-0.4c0.4-0.3,0.9-0.4,1.5-0.4c0.3,0,0.7,0,1,0.2c0.4,0.2,0.7,0.4,1,0.7
			c0.5,0.6,0.8,1.2,0.8,1.8c0,0.3-0.1,0.6-0.2,0.8c0,0,0,0.1-0.1,0.2c-0.1,0.1-0.1,0.2-0.2,0.3c-0.2,0.4-0.6,1.1-1,2
			c-0.2,0.5-0.5,0.9-0.7,1.4c-0.4,0.8-1,1.7-1.5,2.6c-0.6,0.9-1.1,1.8-1.7,2.6c-0.5,0.7-1,1.5-1.5,2.2c-1.2,1.7-2.6,3.2-4.1,4.6
			c-1.5,1.4-3.1,2.6-4.9,3.5c-1.7,0.9-3.6,1.4-5.5,1.4c-0.7,0-1.4,0-2.2-0.2c-0.8-0.1-1.5-0.3-2.1-0.6c-0.3-0.1-0.7-0.3-1-0.5
			c-1.3-0.8-2.4-1.9-3.2-3.2c-0.7-1.2-1.2-2.6-1.5-4c0-0.2-0.1-0.3-0.1-0.5c-0.3-1.6-0.4-3.2-0.4-4.8c0-0.3,0-0.7,0-1
			c0-0.4,0-0.8,0.1-1.2c0-0.1,0-0.1,0-0.2c0.1-0.6,0.1-1.3,0.2-1.9c0-0.3,0.1-0.6,0.1-0.9c0.1-1,0.2-2,0.3-2.9
			c0.1-1,0.1-1.9,0.1-2.8c0-0.3,0-0.7,0-1c-0.1-1-0.3-1.6-0.7-2c-0.4-0.4-0.7-0.7-1.1-0.8c-0.1,0-0.2,0-0.2,0
			c-0.3,0-0.6,0.1-0.9,0.2c-0.5,0.2-1,0.5-1.6,1c-0.1,0-0.1,0.1-0.2,0.2c-0.4,0.4-0.9,0.8-1.3,1.2s-0.8,0.9-1.2,1.4
			c-0.2,0.2-0.4,0.5-0.6,0.7c-0.6,0.8-1.2,1.7-1.8,2.5c-0.5,0.7-1,1.5-1.5,2.2c-1.1,1.7-2.2,3.4-3.2,5.2c-0.5,0.8-0.9,1.7-1.4,2.5
			c-0.4,0.8-0.9,1.6-1.3,2.4c-0.8,1.6-1.5,2.8-2,3.9c-0.8,1.7-1.6,2.9-2.5,3.6c-0.1,0.1-0.3,0.2-0.4,0.3c-0.4,0.3-0.8,0.5-1.3,0.7
			s-1.1,0.3-1.7,0.3c-0.5,0-1-0.1-1.5-0.2c-0.7-0.2-1.3-0.5-1.9-1s-0.9-1.1-1.1-1.8c-0.1-0.5-0.2-1-0.2-1.7c0-0.1,0-0.2,0-0.3
			c0-0.4,0.1-0.9,0.1-1.7c0-0.4,0.1-0.8,0.1-1.2c0-0.3,0.1-0.7,0.1-1.1c0-0.4,0.1-0.8,0.1-1.2c0.1-1.3,0.3-2.8,0.4-4.3
			s0.3-3,0.4-4.6c0.1-0.7,0.1-1.5,0.2-2.2s0.1-1.4,0.2-2c0.1-1.3,0.1-2.4,0.1-3.3c0-0.9,0-1.8-0.1-2.7c0-0.2,0-0.4-0.1-0.6
			c0-0.2,0-0.4-0.1-0.6c-0.1-0.7-0.3-1.2-0.5-1.3c-0.1,0-0.2,0.1-0.3,0.2c-0.4,0.3-1.1,1.1-1.9,2.4c0,0,0,0,0,0.1
			c-0.3,0.5-0.6,0.9-0.9,1.4c-0.6,1.1-1.3,2.5-2.1,4.3c-0.4,0.9-0.8,1.8-1.2,2.7c0,0,0,0,0,0.1l0,0c-0.9,2.1-2,4.2-3.1,6.2
			c-1.2,2.1-2.5,4.3-4,6.6c-0.6,0.9-1.2,1.8-1.8,2.8c-1.6,2.3-3.2,4.5-4.8,6.8c-2.9,3.9-6.2,8.1-9.9,12.7c0,2.9,0,5.9,0.1,8.8
			c0,1.5,0,3.1,0,4.6c0,1.7,0,3.3,0,5c0,3.5-0.1,6.9-0.2,10.4c-0.1,2.5-0.3,5-0.6,7.4c-0.1,0.8-0.2,1.6-0.3,2.3
			c-0.2,1.8-0.6,3.7-1,5.5c-0.2,1-0.5,2.1-0.8,3.1c-0.3,1.2-0.8,2.5-1.3,3.7c-0.5,1.1-1,2.2-1.6,3.2s-1.3,1.9-2,2.7
			c-0.7,0.7-1.4,1.3-2.2,1.8c-1.7,1.1-3.6,1.6-5.8,1.6c-1.1,0-2.2-0.2-3.3-0.5c-1.7-0.6-3.1-1.6-4.1-3.1c-0.8-1.1-1.3-2.2-1.7-3.5
			c-0.6-1.9-0.9-4.1-0.9-6.7c0-1.4,0.1-2.8,0.2-4.1c0.1-1.2,0.3-2.3,0.5-3.5c0.4-2.1,0.8-4.2,1.4-6.3c0.2-0.7,0.4-1.4,0.6-2.2
			c0.8-2.8,1.8-5.5,2.9-8.2c0.1-0.2,0.2-0.4,0.2-0.5c1.2-2.9,2.6-5.8,4-8.6c1.5-2.8,3.1-5.5,4.8-8c1.7-2.6,3.6-4.9,5.6-7
			c0-3.2,0.1-6.5,0.1-9.7c0-1.5,0-3.1,0.1-4.6c0-1.4,0.1-2.8,0.1-4.2c-1.4,1.7-3.1,3.2-5.1,4.2c-1,0.5-2,0.9-3.1,1.2
			c-0.9,0.2-1.9,0.4-2.9,0.4s-1.9-0.1-2.8-0.3c-0.6-0.2-1.2-0.3-1.7-0.6c-1.4-0.6-2.5-1.5-3.5-2.7c-1-1.1-1.7-2.5-2.2-4
			c-0.3-0.8-0.5-1.7-0.6-2.5c-0.9,1.2-1.8,2.4-2.7,3.5c-1.2,1.4-2.4,2.7-3.8,4c-0.1,0.1-0.3,0.2-0.4,0.4c-1.1,0.9-2.2,1.7-3.4,2.4
			c-0.4,0.2-0.8,0.5-1.2,0.7c-1,0.5-2.1,0.9-3.2,1c-0.6,0.1-1.1,0.1-1.7,0.1c-1,0-2-0.1-3-0.3c-0.9-0.2-1.8-0.5-2.7-1
			c-1.6-0.9-3-2.1-4.1-3.6c-0.8-1.1-1.5-2.3-1.9-3.5c-0.2-0.6-0.4-1.2-0.6-1.7c-0.3-1.1-0.5-2.2-0.7-3.4c-0.1,0.2-0.2,0.3-0.4,0.5
			c-1,1.5-2.1,2.9-3.3,4.2c-0.2,0.3-0.5,0.5-0.7,0.8c-1.5,1.6-3.2,3.1-5.1,4.4c-1.9,1.3-4,2.3-6.2,3.1c-1.7,0.6-3.4,0.9-5.2,1.1
			c-0.7,0.1-1.5,0.1-2.2,0.1c-2.3,0-4.5-0.3-6.7-0.9c-0.8-0.2-1.5-0.5-2.2-0.8c-2.8-1.1-5-2.9-6.7-5.4c-0.2-0.2-0.3-0.5-0.3-0.8
			c0-0.2-0.1-0.4-0.1-0.6c0-0.7,0.3-1.3,0.8-1.8c0.2-0.2,0.5-0.4,0.8-0.6c0.3-0.2,0.7-0.2,1.1-0.2c0.4,0,0.8,0.1,1.1,0.2
			c0.3,0.1,0.6,0.3,0.8,0.5c0,0,0,0,0,0.1c0.1,0.1,0.2,0.2,0.5,0.4c0.1,0.1,0.2,0.2,0.3,0.2c0.2,0.1,0.4,0.3,0.7,0.5
			c0.4,0.3,0.9,0.5,1.4,0.7s1.1,0.3,1.7,0.3c0.4,0,0.9,0,1.3-0.1c0.6-0.1,1.1-0.3,1.5-0.5h0.1c0.5-0.3,1-0.6,1.3-1
			c0.2-0.2,0.4-0.4,0.6-0.7c0.5-0.7,0.8-1.4,1-2.2c0.1-0.3,0.1-0.5,0.2-0.8c0.1-0.4,0.1-0.8,0.1-1.2c0-1.2-0.2-2.3-0.6-3.5
			c-0.4-1.1-0.8-2.2-1.3-3.2c0-0.1-0.1-0.2-0.1-0.3c-0.5-0.9-0.9-1.8-1.4-2.7c-0.2-0.3-0.3-0.6-0.5-0.9c-0.7-1.3-1.3-2.5-1.9-3.9
			c-0.3,0.7-0.6,1.5-1,2.3c0,0.1,0,0.1-0.1,0.2c-0.3,0.6-0.5,1.2-0.8,1.8c-0.2,0.4-0.4,0.8-0.6,1.1c-0.2,0.3-0.3,0.5-0.5,0.8
			c-0.1,0.1-0.2,0.2-0.2,0.3c-1,2.2-2.2,4.4-3.4,6.5c-2.3,3.8-4.7,7-7.3,9.3c-1.7,1.6-3.7,2.9-5.8,3.9c-2.3,1-4.8,1.6-7.4,1.6
			c-3.2,0-5.9-0.6-8.2-1.8c-1.7-0.9-3.3-2-4.6-3.4c-0.4-0.4-0.7-0.8-1-1.2c-1.5-1.9-2.6-4.1-3.3-6.4c-0.7-2.3-1.1-4.7-1.1-7.1
			c0-2.4,0.3-4.6,0.9-6.6c0.3-1.1,0.8-2.2,1.3-3.3c0.4-0.7,0.8-1.3,1.2-1.9c0.8-1.1,1.8-2,2.9-2.8c0.4-0.2,0.7-0.5,1.1-0.7
			c1.5-0.8,3.3-1.3,5.1-1.3c1.1,0,2.1,0.2,3.1,0.6c0,0,0.1,0,0.2,0.1c1.1,0.5,2.1,1.1,2.9,1.9c0.7,0.7,1.4,1.5,1.8,2.4
			c0.1,0.2,0.2,0.3,0.3,0.5c0.3,0.8,0.6,1.5,0.7,2.4c0.1,0.5,0.1,1.1,0.1,1.6c0,1.6-0.2,3.2-0.8,4.7c-0.1,0.2-0.2,0.5-0.2,0.7
			c-0.7,1.7-1.6,3.2-2.8,4.7c-1,1.2-2.1,2.3-3.3,3.3c-0.3,0.2-0.6,0.5-0.9,0.7C900.8,711.7,899,712.8,897.2,713.7z M820.2,620.2
			c-5.8-1-11.6-1.5-17.4-1.5c-3.6,0-7.2,0.2-10.8,0.5c-4.2,0.4-8.4,1-12.6,1.9c-3.1,0.7-6.2,1.6-9.2,2.7c-3.1,1.1-6,2.5-8.8,4.1
			c-1.5,0.8-2.8,1.8-4.2,2.8c-2.9,2.2-5.5,4.9-7.5,7.9c-0.7,1.1-1.4,2.3-2,3.6c-1.5,3.4-2.2,7-2.2,10.6c0,1,0,2,0.2,3
			c0.2,1.7,0.5,3.3,1,4.9c0.2,0.6,0.4,1.2,0.7,1.8c0.7,1.6,1.5,3.1,2.5,4.6c0.2,0.3,0.4,0.6,0.6,0.8c1.1,1.5,2.3,2.8,3.7,4
			c0.6,0.5,1.2,1,1.8,1.4c1,0.7,2,1.4,3,2c0,0,0,0,0.1,0c0.8,0.4,1.5,0.8,2.3,1.1c0.7,0.3,1.5,0.6,2.2,0.8c0.4,0.1,0.9,0.3,1.3,0.4
			c0.4,0.1,0.8,0.2,1.2,0.2c0.3,0,0.7,0.1,1.1,0.1c0.3,0,0.6,0,0.8-0.1c0.4-0.1,0.7-0.3,1-0.5c0.4-0.3,0.6-0.6,0.8-1
			c0.1-0.2,0.1-0.5,0.1-0.8c0-0.6-0.2-1.2-0.5-1.6c-0.4-0.5-0.8-0.8-1.5-0.9h-0.1c-0.2-0.1-0.7-0.2-1.5-0.5c-0.6-0.2-1.2-0.4-2-0.8
			c-0.4-0.2-0.8-0.4-1.2-0.6c-1.2-0.6-2.6-1.5-4-2.5s-2.8-2.3-4-3.7c-0.5-0.6-1-1.2-1.4-1.9c-0.6-1-1.2-2.1-1.6-3.3
			c-0.8-2-1.2-4.3-1.2-6.9c-0.1-4.4,1.3-8.6,3.9-12.2c2.6-3.6,6.2-6.6,10.9-9.1c0.2-0.1,0.3-0.2,0.5-0.2c4.6-2.3,10-4.1,16.2-5.4
			c3.2-0.6,6.3-1.1,9.6-1.4c4-0.4,7.9-0.5,11.9-0.5c5.9,0,11.7,0.5,17.5,1.6c5.7,1.1,11.3,2.7,16.6,4.7c5.2,2,10.2,4.6,14.8,7.7
			c0.1,0.1,0.3,0.2,0.4,0.3c4.3,2.9,8.1,6.3,11.4,10.2c3.3,4,6,8.4,7.8,13.2c0.5,1.3,1,2.6,1.3,3.9c1,3.8,1.6,7.7,1.5,11.7
			c0,5.3-1,10.6-2.9,15.6c-2,4.9-4.8,9.2-8.5,12.9c-1.3,1.3-2.7,2.5-4.1,3.5c-2.9,2.2-6.1,3.9-9.5,5.3c-2.6,1.1-5.4,1.9-8.2,2.4
			c-3.3,0.6-6.7,0.9-10.1,0.9c-1.6,0-3.2-0.1-4.7-0.2c-4.9-0.4-9.8-1.2-14.5-2.5c-6.5-1.8-12.9-4.5-18.9-8l0,0c-0.1,0-0.1,0-0.1-0.1
			l0,0l0,0c0,0-0.1,0-0.1-0.1c0,0,0,0-0.1,0c1.9-2.5,3.5-5.1,4.8-7.9c1.3-2.8,2.4-5.8,3.3-8.8c0.9-3,1.6-6,2.2-9.1
			c0.1-0.8,0.3-1.5,0.4-2.3c0.4-2.2,0.8-4.3,1.2-6.5c0.1-0.8,0.3-1.7,0.4-2.5c0.4-2.4,0.9-4.8,1.4-7.2c0.2-0.8,0.3-1.5,0.5-2.3
			c0.5-2.2,1.2-4.3,2-6.4c0.2-0.4,0.3-0.8,0.5-1.2c0.9-2.1,2.1-4.2,3.5-6c0.4-0.5,0.8-1.1,1.3-1.5c1.4-1.5,3.1-2.8,4.9-3.8
			c0.9-0.5,1.4-1.3,1.4-2.2c0-0.1,0-0.2,0-0.4c0-0.6-0.4-1.2-0.9-1.6c-0.6-0.5-1.2-0.7-1.9-0.7c-0.1,0-0.2,0-0.3,0
			c-0.2,0-0.3,0.1-0.5,0.1c-0.2,0.1-0.3,0.1-0.5,0.2c-0.8,0.5-1.5,0.9-2.3,1.5c-2.1,1.5-4,3.2-5.5,5.3c-2,2.7-3.6,5.6-4.8,8.7
			c-1.2,3.2-2.2,6.5-2.9,10.1c-0.7,3.7-1.4,7.3-2,11c-0.7,3.8-1.4,7.6-2.2,11.3c-0.8,3.8-2,7.5-3.5,11.1c-1.3,3.2-3.1,6.1-5.2,8.7
			c-3.1-1.7-6.3-3.1-9.6-4.5c-3.5-1.4-6.8-2.5-9.9-3.2c-3.3-0.8-6.6-1.2-10-1.3c-0.9,0-1.9,0-2.8,0.1c-1.7,0.1-3.3,0.5-5,0.9
			c-0.9,0.3-1.8,0.6-2.6,0.9c-1.2,0.5-2.4,1.2-3.5,1.9c-0.4,0.3-0.8,0.6-1.2,1c-1.1,0.9-2,2-2.7,3.2c-0.9,1.5-1.4,3.3-1.4,5.1
			c0,2.1,0.5,4,1.6,5.7c0.4,0.6,0.8,1.2,1.3,1.7c0.9,1,2,1.9,3.2,2.7c0.9,0.6,1.9,1.1,2.9,1.5c1.2,0.5,2.5,0.9,3.8,1.2
			c0.9,0.2,1.7,0.4,2.6,0.5c1.9,0.3,3.8,0.5,5.7,0.4c5.4,0,10.7-1,15.7-3s9.3-4.8,13.1-8.5c3.2,2.1,6.6,3.9,10.1,5.4
			s7.1,2.8,10.7,3.8c3.6,1,7.2,1.8,10.9,2.3c0.7,0.1,1.3,0.2,2,0.2c2.8,0.3,5.7,0.5,8.5,0.5c1.8,0,3.5-0.1,5.3-0.2
			c5-0.4,9.8-1.5,14.5-3.3c0.6-0.2,1.1-0.4,1.7-0.7c5.1-2.2,9.8-5.2,13.8-9c4.3-4.1,7.8-9.1,10-14.6c0.7-1.7,1.3-3.4,1.8-5.1
			c1.2-4.3,1.8-8.8,1.8-13.2c0-1.8-0.1-3.6-0.3-5.4c-0.4-4.3-1.4-8.6-3.1-12.6c-2.2-5.4-5.2-10.3-9.1-14.7
			c-3.8-4.3-8.3-8.1-13.4-11.3c-5.1-3.2-10.6-5.9-16.3-8.1c-5.8-2.1-11.7-3.7-17.8-4.8C820.6,620.2,820.4,620.2,820.2,620.2z
			 M425,656.1c0.5-0.5,0.7-1.2,0.7-1.8c0,0,0-0.5-0.1-1.3v-0.1c-0.1-0.8-0.2-1.9-0.5-3.2c-0.1-0.3-0.1-0.7-0.2-1
			c-0.2-1.1-0.6-2.3-1-3.7c-0.2-0.7-0.5-1.5-0.8-2.2c-0.4-1.1-0.9-2.2-1.5-3.3c-1.1-2.2-2.7-4.6-4.7-7.1c-1-1.2-2.1-2.4-3.3-3.5
			c-1.4-1.2-2.9-2.4-4.4-3.4l0,0c-3.2-2.1-7-3.8-11.5-5.2c-0.5-0.2-1-0.3-1.5-0.4c-2.2-0.6-4.5-1-7.1-1.3c-2.5-0.3-5-0.4-7.5-0.4
			c-6.4,0-12.7,0.9-18.8,2.8c-6.1,1.8-12,4.4-17.5,7.6c-5.5,3.2-10.6,7.1-15.3,11.5c-4.6,4.3-8.7,9.2-12.1,14.5
			c-3.4,5.2-6,10.7-8,16.5c-1.9,5.8-2.9,11.7-2.9,17.6c0,5.6,0.8,10.6,2.4,14.9c0.4,1,0.8,1.9,1.2,2.8c1.4,3,3.4,5.8,5.8,8.1
			c0.1,0.1,0.2,0.2,0.3,0.3c3,2.8,6.6,5,10.5,6.4c4.2,1.5,8.9,2.3,14,2.3c0.4,0,0.7,0,1.1,0c5.5-0.1,10.9-1,16.1-2.5
			c0.9-0.3,1.8-0.6,2.7-0.9c4.9-1.7,9.7-4,14.1-6.7c1.7-1.1,3.4-2.2,5-3.4c3.8-2.8,7.3-5.8,10.6-9c1.6-1.6,3.1-3.2,4.6-4.8
			c3.4-3.9,6.4-8,9.2-12.2c0,0.5,0,1.1,0,1.6c0.1,3.8,0.4,7.7,0.7,11.5c0.4,4.5,0.9,9.1,1.5,13.7c-0.3,0.2-0.6,0.3-1,0.5
			c-2,1-4.1,2.3-6.5,3.9c-2.7,1.8-5.4,3.9-8.2,6.3c-0.2,0.2-0.4,0.3-0.5,0.5c-2.7,2.3-5.2,4.8-7.6,7.3c-2.6,2.8-4.9,5.8-7,9
			c-2,3.1-3.6,6.4-4.9,9.8c-1.2,3.3-1.8,6.8-1.8,10.3c0,2.5,0.4,4.7,1.3,6.8c0,0.1,0.1,0.2,0.1,0.2c0.8,1.9,2,3.6,3.5,5.1
			c1.6,1.5,3.4,2.7,5.5,3.5c0.7,0.3,1.4,0.5,2.1,0.7c1.5,0.4,3.1,0.6,4.8,0.6c1.4,0,2.9-0.1,4.3-0.3c3-0.5,5.9-1.6,8.4-3.4
			c1.6-1.1,3-2.5,4.3-3.9c1.6-1.9,3-4,4-6.2c1.1-2.2,2-4.5,2.7-6.8c0.8-2.6,1.4-5.2,1.8-7.9c0.2-1.2,0.4-2.5,0.5-3.7
			c0.6-4.6,0.8-9.2,0.8-13.9c0-2.6-0.1-5.2-0.2-7.8s-0.3-5.1-0.6-7.6c1.8-0.9,3.3-1.6,4.6-2.1c0.5-0.2,1.1-0.4,1.6-0.6
			c0.2-0.1,0.4-0.1,0.5-0.2c1-0.4,1.6-0.6,1.9-0.7c0,0,0,0,0.1,0h0.1c0.5-0.2,0.9-0.5,1.2-0.9c0.3-0.4,0.5-1,0.5-1.5
			c0-0.1,0-0.2,0-0.2c0-0.7-0.3-1.3-0.8-1.7c-0.5-0.5-1.2-0.7-1.9-0.7c-0.1,0-0.2,0-0.4,0l0,0c-0.1,0-0.5,0.1-1,0.2
			c-0.4,0.1-1,0.3-1.7,0.6c-0.3,0.1-0.5,0.2-0.8,0.3c-0.2,0.1-0.4,0.2-0.6,0.3c-0.7,0.3-1.6,0.7-2.6,1.2c-0.5,0.2-1,0.5-1.4,0.7
			c-0.2-1.8-0.5-3.6-0.7-5.4c-0.3-2.8-0.6-5.7-0.8-8.5c-0.1-2.1-0.3-4.2-0.4-6.3c-0.1-1.9-0.1-3.8-0.1-5.8c0-0.9,0-1.8,0-2.8
			c0-1.4,0.1-2.9,0.2-4.3c0.4-0.7,0.8-1.4,1.1-2.1c1.1-2.2,2-4.3,2.6-6.1c0,0,0,0,0-0.1c0.8-2.3,1.2-4.3,1.2-5.8
			c0-0.5,0-0.9-0.1-1.4c-0.1-0.7-0.5-1.4-1-2c-0.1-0.1-0.1-0.2-0.2-0.2c-0.6-0.7-1.6-1.1-2.5-1.1c-0.3,0-0.7,0-1,0.1
			c-1.1,0.3-2,1.2-2.7,2.6c-0.3,0.6-0.5,1.2-0.7,1.8c-0.7,2.1-1.2,4.9-1.6,8.3c-0.2,1.6-0.3,3.1-0.4,4.7c-3.4,6-7.3,11.7-11.7,17.1
			c-4.2,5.3-9.1,10.1-14.5,14.2c-5.3,4.1-11,7.3-17.2,9.7c-1.3,0.5-2.5,0.9-3.8,1.3c-5.2,1.5-10.7,2.3-16.1,2.3
			c-0.9,0-1.8,0-2.7-0.1c-3-0.2-6-0.7-8.9-1.6c-3.5-1-6.6-2.8-9.3-5.2c-1.3-1.2-2.4-2.5-3.4-3.9c-1.1-1.7-2.1-3.5-2.8-5.3
			c-1.5-3.7-2.2-8.2-2.2-13.5c0-5.8,0.9-11.5,2.8-17s4.5-10.7,7.7-15.5c3.3-4.8,7.1-9.3,11.6-13.3s9.2-7.5,14.3-10.4
			c5-2.9,10.4-5.2,16-6.8s11.1-2.4,16.6-2.4c3.5,0,6.7,0.2,9.6,0.7c2.1,0.3,4.2,0.8,6.2,1.5c0.3,0.1,0.5,0.2,0.8,0.3
			c1.9,0.7,3.6,1.4,5.1,2.2c1.7,0.9,3.3,1.9,4.8,3.1c1,0.8,1.9,1.6,2.8,2.5c1.5,1.5,2.8,3.1,3.9,4.8c1.6,2.6,2.8,5.1,3.6,7.4
			c0.2,0.7,0.5,1.4,0.7,2.1c0.2,0.7,0.3,1.3,0.5,1.9c0.1,0.6,0.2,1.2,0.3,1.8c0.1,1.3,0.2,2.1,0.3,2.5c0,0.1,0,0.1,0,0.2
			c0,0.2,0.1,0.4,0.1,0.5c0.1,0.5,0.4,1,0.8,1.3c0.5,0.5,1.2,0.7,1.9,0.7c0.3,0,0.6,0,0.9-0.2c0.4-0.1,0.7-0.4,1-0.7
			C424.9,656.1,425,656.1,425,656.1z M1193.3,679.1l11,0.9c2.4,0.2,4.9,0.4,7.3,0.7c2.3,0.2,4.5,0.5,6.6,0.7c0.3,0,0.6,0.1,0.9,0.1
			c1.8,0.2,3.6,0.5,5.4,0.8s3.4,0.6,5,1c0.3,0.1,0.7,0.2,1.1,0.2c3.6,0.9,6.6,2,9,3.4c1.2,0.7,2.3,1.5,3.2,2.4
			c2,1.9,3.3,4.4,3.7,7.2c0.2,1,0.2,1.9,0.2,2.9c0,2.3-0.4,4.5-1.2,6.7c-0.6,1.4-1.3,2.8-2.2,4c-1.6,2.1-3.6,4-5.8,5.5
			c-1.2,0.8-2.4,1.6-3.6,2.2c-2.3,1.2-4.8,2.2-7.3,3c-2.2,0.7-4.4,1.3-6.6,1.7c-3.8,0.8-7.6,1.2-11.5,1.5c-1.9,0.1-3.7,0.2-5.6,0.2
			c-2.7,0-5.5-0.1-8.2-0.2c-3.3-0.2-6.4-0.6-9.2-1c-3.8-0.7-7.1-1.4-10-2.1c-0.9-0.2-1.7-0.5-2.6-0.7c-0.8-0.2-1.6-0.5-2.4-0.8
			c-1.7-0.6-3.2-1.1-4.3-1.7c-0.3-0.2-0.7-0.3-1-0.5c-0.2-0.1-0.4-0.2-0.6-0.3c-1.4-0.7-2.1-1.1-2.2-1.2c-0.9-0.5-1.3-1.2-1.3-2.2
			c0-0.3,0.1-0.6,0.2-0.9c0.1-0.4,0.4-0.7,0.7-1c0.2-0.2,0.5-0.4,0.8-0.5c0.3-0.2,0.7-0.2,1.1-0.2c0.5,0,1,0.1,1.4,0.4
			c0.1,0,0.9,0.4,2.5,1.2c0.5,0.3,1.1,0.5,1.6,0.8c1.4,0.6,3.3,1.2,5.5,1.9c1.3,0.4,2.6,0.8,3.9,1.1c1.2,0.3,2.4,0.6,3.7,0.8
			c1.4,0.3,2.8,0.5,4.2,0.8c4,0.7,8.6,1.1,13.8,1.2c0.9,0,1.7,0,2.6,0c6.2,0,11.6-0.5,16.3-1.5c1.9-0.4,3.8-0.9,5.6-1.4
			c1.8-0.6,3.6-1.2,5.1-2c0.4-0.2,0.8-0.4,1.3-0.6c1.3-0.7,2.5-1.5,3.7-2.4c1.3-1,2.4-2.1,3.3-3.3c0.1-0.2,0.2-0.3,0.4-0.5
			c1.6-2.2,2.5-4.9,2.5-7.6c0-0.7-0.1-1.3-0.2-2c-0.1-0.8-0.4-1.5-0.7-2.2c-0.6-1.2-1.4-2.2-2.5-3.1c-0.7-0.6-1.5-1.1-2.3-1.5
			c-0.5-0.3-1-0.5-1.5-0.7c-1-0.4-2.1-0.8-3.2-1.1c-0.5-0.2-1.1-0.3-1.6-0.4c-1.8-0.5-3.8-0.9-5.8-1.2c-2.1-0.3-4.3-0.6-6.4-0.8
			c-2.2-0.2-4.4-0.4-6.6-0.6c-2.2-0.2-4.4-0.4-6.6-0.6l-11-0.9c-3.6-0.3-7.2-0.7-10.8-1.1c-3.3-0.4-6.3-0.9-9.2-1.5
			c-0.9-0.2-1.9-0.4-2.8-0.6c-6.5-1.5-11.9-3.3-16.2-5.7c-1.7-0.9-3.3-2-4.9-3.2c-1.8-1.5-3.4-3-4.6-4.8c-0.1-0.1-0.2-0.2-0.2-0.3
			c-1.7-2.6-2.8-5.6-3.1-8.7c-0.1-0.8-0.1-1.7-0.1-2.5c0-3.6,0.7-7.2,2.2-10.5c0.2-0.5,0.5-1,0.8-1.6c1.8-3.2,4-6,6.7-8.5
			c0.5-0.5,1.1-1,1.6-1.4c2.5-2.1,5.2-3.9,8.1-5.5c1.4-0.8,2.8-1.5,4.2-2.1c4.4-2,8.9-3.7,13.6-5c0.5-0.1,1-0.3,1.5-0.4
			c5.3-1.4,10.9-2.5,16.6-3.2c5.6-0.7,11.3-1.1,16.9-1.1c2.8,0,5.5,0.1,8.3,0.2c2.7,0.2,5.2,0.4,7.5,0.7c0.8,0.1,1.5,0.2,2.3,0.3
			c5.1,0.8,9.5,1.9,13.2,3.1c1.4,0.5,2.8,1,4.1,1.6c1.3,0.6,2.4,1.2,3.5,1.8c0.5,0.3,0.9,0.6,1.4,0.9c2.3,1.6,4.2,3.2,5.7,4.8
			c3.3,3.6,5.1,8.3,5.1,13.2c0,1.4-0.1,2.8-0.4,4.1c0,0.2-0.1,0.4-0.1,0.6c-0.1,0.3-0.2,0.6-0.3,0.8c-0.2,0.3-0.4,0.5-0.6,0.7
			c-0.5,0.4-1,0.6-1.6,0.6c-0.3,0-0.6,0-0.9-0.1c-0.4-0.1-0.8-0.4-1.1-0.7c-0.2-0.2-0.4-0.5-0.6-0.8c-0.1-0.3-0.2-0.7-0.2-1
			c0-0.7,0.1-1.4,0.2-2.1c0.1-0.7,0.2-1.3,0.2-2c0-3.3-1.1-6.5-3.2-9.1c-1.2-1.5-2.7-2.9-4.3-4c-1.3-1-2.8-1.8-4.5-2.6
			c-0.1,0-0.2-0.1-0.3-0.2c-1.8-0.8-3.7-1.6-5.7-2.2c-2.6-0.8-5.5-1.5-8.7-2.1c-3.2-0.5-6.3-0.9-9.5-1.1c-3.1-0.2-6.2-0.3-9.3-0.3
			c-5.3,0-10.7,0.3-16,1c-4.9,0.6-9.8,1.5-14.6,2.7c-0.3,0.1-0.6,0.2-0.9,0.2c-3.9,1-7.7,2.2-11.4,3.8c-0.8,0.3-1.6,0.7-2.4,1
			c-2.3,1-4.6,2.2-6.7,3.5c-1.6,1-3.1,2-4.5,3.2c-1.8,1.4-3.5,3-4.9,4.8c-0.9,1.1-1.8,2.4-2.6,3.6c-1.8,3.1-2.7,6.5-2.7,10.2
			c0,2.8,0.6,5.3,1.9,7.5c1.2,2,2.7,3.7,4.5,5.2c0.2,0.2,0.4,0.3,0.7,0.5c2.2,1.6,4.8,3,7.8,4.1c2.1,0.8,4.3,1.5,6.5,2.1
			c1.1,0.3,2.1,0.5,3.2,0.8c3.1,0.7,6.3,1.2,9.5,1.7c0.5,0.1,0.9,0.1,1.4,0.2C1185.7,678.4,1189.5,678.8,1193.3,679.1z M1308.2,674
			c0,2.2,0,4.3,0.1,6.5c0,0.7,0.1,1.4,0.1,2.1c0.1,2.7,0.3,5.4,0.6,7.9c1.6-2.9,3-5.9,4.4-8.9c0.5-1,0.9-2.1,1.4-3.2
			c1.8-4.2,3.4-8.5,4.8-12.9c1.4-4.3,2.5-8.7,3.3-13c0.5-2.7,0.9-5.5,1.1-8.2c0.1-1.4,0.2-2.7,0.2-4.1c0-4.2-0.3-7.5-0.8-9.9
			c-0.1-0.6-0.3-1.3-0.6-1.9c-0.2-0.5-0.4-0.9-0.6-1.4c-0.6-1.1-1.3-1.8-2.1-2c-0.3-0.1-0.6-0.2-0.9-0.2c-1,0-1.9,0.6-2.8,1.9
			l-0.1,0.1c-0.4,0.5-0.7,1.1-1,1.7c-0.3,0.6-0.6,1.3-0.9,2c-0.2,0.6-0.5,1.2-0.7,1.8c-0.4,1.1-0.7,2.2-1,3.3
			c-0.4,1.5-0.8,3.2-1.2,4.9c-0.4,2.1-0.8,4.1-1.1,6.2c-0.2,1.3-0.4,2.7-0.6,4c-0.3,2.8-0.6,5.6-0.9,8.4c-0.1,1-0.2,2-0.2,2.9
			C1308.4,666.1,1308.2,670,1308.2,674z M407.5,716.4c-1.5,0.8-3.1,1.8-4.5,2.7c-1,0.6-1.9,1.3-2.9,1.9c-2.6,1.8-5,3.8-7.5,5.9
			c-2.4,2.2-4.7,4.5-6.9,6.9c-2.1,2.4-4,5-5.7,7.7c-1.6,2.6-2.9,5.3-3.8,8.2c-0.9,2.7-1.4,5.6-1.4,8.5c0,0.9,0.1,1.8,0.2,2.7
			c0.1,0.7,0.3,1.4,0.6,2.1c0.4,1.1,1,2.1,1.8,2.9c0.2,0.2,0.4,0.5,0.7,0.7c1.1,1,2.3,1.8,3.7,2.3c1.1,0.4,2.3,0.7,3.5,0.8
			c0.4,0,0.8,0,1.3,0c5,0.1,9.8-2.2,12.9-6.1c1.1-1.3,2.1-2.8,2.9-4.3c1.4-2.6,2.5-5.4,3.2-8.3c1.5-5.6,2.3-12.3,2.4-20.2
			c0-0.7,0-1.3,0-1.9c0-2,0-4.1-0.1-6.1C407.9,720.7,407.7,718.6,407.5,716.4z M583.8,689.7c2-4.3,3.8-8.5,5.5-12.5
			c1.6-4,3-8,4.2-12.2c1.2-4,2.1-8.2,2.8-12.3c0.6-3.8,0.9-7.5,1-11.3c0-0.6,0-1.1,0-1.7c0-0.7,0-1.8-0.1-3.4c0-0.1,0-0.1,0-0.2
			c-0.1-1.7-0.3-3.3-0.6-5c-0.2-0.8-0.4-1.7-0.7-2.5c-0.2-0.7-0.6-1.3-0.9-1.9c-0.2-0.4-0.5-0.7-0.8-1c-0.6-0.6-1.5-0.9-2.3-0.9
			c-0.6,0-1.1,0.2-1.5,0.6c-0.2,0.2-0.5,0.5-0.7,0.8c-0.2,0.2-0.3,0.5-0.5,0.7c-0.3,0.5-0.6,1.1-0.8,1.7c-0.2,0.5-0.4,1.2-0.6,1.8
			c-0.2,0.7-0.4,1.4-0.6,2.1c-0.3,1.1-0.5,2.2-0.7,3.3c-0.3,1.5-0.5,3.1-0.7,4.9c-0.4,3.1-0.7,6.4-0.9,9.9
			c-0.2,3.6-0.4,7.2-0.5,10.7c-0.1,3.7-0.2,7.2-0.2,10.7c0,1.7,0,3.4,0,5s0,3.1,0,4.7L583.8,689.7L583.8,689.7z M531.2,724.3
			c-2.3,5.1-4.4,10.2-6.3,15.4c-1.3,3.6-2.5,7.2-3.6,10.8c-0.4,1.4-0.8,2.7-1.2,4.1c-0.7,2.6-1.4,5.2-1.9,7.8
			c-0.4,1.9-0.8,3.8-1.1,5.7c-0.7,4.2-1.1,7.9-1.1,11c0,0.8,0,1.7,0.1,2.6c0.1,0.6,0.2,1.2,0.3,1.7c0.1,0.3,0.2,0.6,0.3,0.8
			c0.3,0.8,0.7,1.5,1.2,2c0.4,0.4,1,0.7,1.6,0.8c0.2,0,0.3,0,0.4,0c0.9,0,1.8-0.3,2.4-0.9c0.6-0.5,1.2-1.2,1.7-2s0.9-1.6,1.2-2.4
			c0.4-0.9,0.7-1.8,1-2.8c0.3-0.8,0.5-1.7,0.7-2.5c0.4-1.6,0.7-3.3,1-4.9c0.3-1.7,0.6-3.6,0.8-5.5c0-0.3,0.1-0.6,0.1-0.8
			c0.4-3.3,0.7-6.6,1-9.9c0.1-1.2,0.2-2.3,0.2-3.5c0.3-4.7,0.5-9.3,0.7-14.1c0.1-2.3,0.1-4.6,0.2-6.9
			C531.1,728.6,531.2,726.4,531.2,724.3z M1014.7,743.5c-2.1,2.9-4,5.9-5.7,9c-0.1,0.3-0.3,0.5-0.4,0.8c-1.8,3.5-3.3,7.1-4.7,10.8
			c-0.9,2.5-1.7,5.1-2.3,7.7c-0.2,1-0.5,1.9-0.7,2.9c-0.3,1.4-0.5,2.8-0.7,4.3c-0.2,1.4-0.3,2.8-0.3,4c0,0.3,0,0.6,0,0.9
			c0,1.7,0.2,3.1,0.5,4.1l0,0c0.1,0.3,0.2,0.7,0.3,1c0.2,0.6,0.5,1,0.8,1.4c0.2,0.2,0.4,0.4,0.6,0.6c0.3,0.2,0.5,0.4,0.8,0.5h0.1
			c0.2,0.1,0.5,0.2,0.8,0.2s0.5,0.1,0.8,0.1c1.3,0,2.6-0.5,3.5-1.4c0.1-0.1,0.2-0.2,0.4-0.4c1.1-1.2,2-2.7,2.8-4.6
			c0.4-1,0.8-2.1,1-3.1c0.3-1.1,0.6-2.3,0.8-3.5c0,0,0,0,0-0.1c0.5-2.6,0.8-5.2,1.1-7.8c0.2-2.7,0.4-5.3,0.5-8
			c0-1.3,0.1-2.5,0.1-3.8c0-1.2,0-2.3,0-3.5v-6C1014.8,747.5,1014.8,745.5,1014.7,743.5z M1404.3,653.9h-8.5
			c-0.7,2.9-1.2,6.5-1.6,10.7c-0.3,2.9-0.5,6.3-0.6,10.1c0,1.8-0.1,3.6-0.1,5.4c0,0.8,0,1.6,0,2.4c0,2.3,0.1,4.4,0.3,6.1l0,0
			c0.2,2.3,0.5,4.4,0.9,6.2c1.1-2.3,2-4.6,2.9-7c0.4-1,0.7-2,1-3c1.2-3.5,2.2-7.2,3-10.8c0.8-3.4,1.4-6.9,1.9-10.3
			c0-0.1,0-0.2,0-0.3c0.2-1.7,0.4-3.3,0.5-5C1404.3,657,1404.3,655.5,1404.3,653.9z M771.9,702.8c-0.3-0.1-0.6-0.2-0.8-0.3
			c-1.8-0.6-3.7-1-5.6-1.4c-2-0.3-3.8-0.5-5.6-0.6c-0.2,0-0.4,0-0.5,0c-1.1,0-2.3,0.1-3.4,0.2c-0.7,0.1-1.4,0.2-2.2,0.4
			s-1.6,0.5-2.4,0.8c-0.7,0.3-1.4,0.6-2,1c-0.6,0.3-1.2,0.8-1.7,1.2s-0.9,0.9-1.3,1.4c-0.3,0.5-0.6,0.9-0.8,1.5s-0.3,1.1-0.3,1.6
			c0,0.7,0.2,1.4,0.4,2.1c0.2,0.3,0.3,0.7,0.5,1c0.6,1,1.5,1.9,2.8,2.6l0.1,0.1c0.7,0.4,1.3,0.7,2,1c0.9,0.4,1.8,0.7,2.9,1
			c1,0.2,2,0.4,3,0.5s2,0.2,3.1,0.2c0.3,0,0.5,0,0.8,0c4.5,0,8.8-0.8,12.9-2.3c4-1.5,7.7-3.7,10.9-6.5
			C780.2,706,775.9,704.1,771.9,702.8z M895,709.1c1.5-0.6,2.8-1.4,4-2.3c0.9-0.7,1.8-1.5,2.5-2.3c0.2-0.2,0.4-0.5,0.6-0.7
			c0.9-1.1,1.5-2.3,2-3.5s0.7-2.5,0.7-3.7c0-0.4,0-0.8-0.1-1.2s-0.2-0.8-0.4-1.2c-0.2-0.3-0.3-0.5-0.6-0.8s-0.7-0.6-1-0.8
			c-0.5-0.2-1-0.3-1.5-0.3c-0.6,0-1.1,0.1-1.7,0.2c-0.6,0.2-1.1,0.5-1.6,0.8c-0.7,0.6-1.3,1.2-1.8,2c-0.1,0.2-0.3,0.5-0.4,0.7
			c-0.4,0.8-0.8,1.7-1,2.6c-0.1,0.4-0.2,0.8-0.3,1.1c-0.3,1.3-0.4,2.7-0.4,4.1c0,0.6,0,1.2,0.1,1.8c0,0.3,0.1,0.6,0.1,0.9
			c0.1,0.7,0.3,1.3,0.4,2C894.9,708.7,894.9,708.9,895,709.1z M644.3,669.5c0.5-0.9,0.7-1.9,0.7-2.9v-0.1c0-0.8-0.2-1.6-0.5-2.4
			c-0.3-0.8-0.8-1.4-1.4-2c-0.6-0.6-1.3-1-2.1-1.4c-0.8-0.3-1.6-0.5-2.5-0.5h-0.1c-0.8,0-1.7,0.2-2.4,0.5c-0.8,0.3-1.5,0.8-2.1,1.4
			c-0.6,0.6-1.1,1.3-1.4,2c-0.3,0.8-0.5,1.6-0.5,2.5v0.1c0,1.7,0.7,3.3,1.9,4.4c0.5,0.5,1,0.9,1.6,1.2c0.9,0.5,2,0.7,3,0.7h0.1
			c1.7,0,3.3-0.7,4.5-1.8C643.5,670.6,643.9,670.1,644.3,669.5z M974.3,669.5c0.5-0.9,0.7-1.9,0.7-2.9v-0.1c0-0.8-0.2-1.6-0.5-2.4
			c-0.3-0.8-0.8-1.4-1.4-2c-0.6-0.6-1.3-1-2.1-1.4c-0.8-0.3-1.6-0.5-2.5-0.5h-0.1c-0.8,0-1.7,0.2-2.4,0.5c-0.8,0.3-1.5,0.8-2.1,1.4
			c-0.6,0.6-1.1,1.3-1.4,2c-0.3,0.8-0.5,1.6-0.5,2.5v0.1c0,1.7,0.7,3.3,1.9,4.4c0.5,0.5,1,0.9,1.6,1.2c0.9,0.5,2,0.7,3,0.7h0.1
			c1.7,0,3.3-0.7,4.5-1.8C973.6,670.6,974,670.1,974.3,669.5z M1436,669.5c0.5-0.9,0.7-1.9,0.7-2.9v-0.1c0-0.8-0.2-1.6-0.5-2.4
			c-0.3-0.8-0.8-1.4-1.4-2s-1.3-1-2.1-1.4c-0.8-0.3-1.6-0.5-2.6-0.5h-0.1c-0.8,0-1.7,0.2-2.4,0.5c-0.8,0.3-1.5,0.8-2.1,1.4
			c-0.6,0.6-1.1,1.3-1.4,2c-0.3,0.8-0.5,1.6-0.5,2.5v0.1c0,1.7,0.7,3.3,1.9,4.4c0.5,0.5,1,0.9,1.6,1.2c0.9,0.5,2,0.7,3,0.7h0.1
			c1.7,0,3.3-0.7,4.5-1.8C1435.3,670.6,1435.7,670.1,1436,669.5z M1277.8,696.1c0,0.6,0.1,1.2,0.2,1.8c0.1,0.3,0.1,0.7,0.2,1
			c0.2,0.9,0.6,1.8,1,2.6c0,0.1,0.1,0.2,0.1,0.3c0.5,1,1.1,1.9,1.9,2.7c0.8,0.9,1.6,1.6,2.6,2.2c0.1-0.9,0.2-1.8,0.2-2.7
			c0-0.1,0-0.1,0-0.2c0-1.3-0.1-2.6-0.3-3.8c-0.2-1.3-0.5-2.5-0.8-3.6c-0.4-1.1-0.8-2-1.3-2.7c-0.2-0.2-0.3-0.4-0.6-0.5
			c-0.4-0.3-0.8-0.5-1.3-0.5c-0.1,0-0.2,0-0.3,0c-0.2,0.1-0.4,0.2-0.6,0.3c-0.1,0.1-0.2,0.2-0.3,0.2c-0.2,0.2-0.3,0.3-0.4,0.5
			c-0.2,0.3-0.3,0.8-0.3,1.4C1277.8,695.5,1277.8,695.8,1277.8,696.1z M1476.6,696.1c0,0.6,0.1,1.2,0.2,1.8c0.1,0.3,0.1,0.7,0.2,1
			c0.2,0.9,0.6,1.8,1,2.6c0.1,0.1,0.1,0.2,0.1,0.3c0.5,1,1.1,1.9,1.9,2.7c0.8,0.9,1.6,1.6,2.6,2.2c0.1-0.9,0.2-1.8,0.2-2.7
			c0-0.1,0-0.1,0-0.2c0-1.3-0.1-2.6-0.3-3.8c-0.2-1.3-0.5-2.5-0.8-3.6s-0.8-2-1.3-2.7c-0.2-0.2-0.3-0.4-0.6-0.5
			c-0.4-0.3-0.8-0.5-1.3-0.5c-0.1,0-0.2,0-0.3,0c-0.2,0.1-0.4,0.2-0.6,0.3c-0.1,0.1-0.2,0.2-0.3,0.2c-0.2,0.2-0.3,0.3-0.4,0.5
			c-0.2,0.3-0.3,0.8-0.3,1.4C1476.6,695.5,1476.6,695.8,1476.6,696.1z M1397.2,649h6.9c-0.2-1.9-0.6-3.4-1-4.5v-0.1
			c-0.4-1.1-1-1.7-1.5-1.7c-0.1,0-0.3,0-0.4,0.1c-0.3,0.2-0.8,0.5-1.3,1c-0.1,0.1-0.1,0.1-0.2,0.2c-0.3,0.3-0.5,0.6-0.7,0.9
			C1398.3,646,1397.8,647.3,1397.2,649z M640.9,666.6c0-0.6-0.2-1.2-0.7-1.7l0,0c-0.2-0.2-0.5-0.4-0.8-0.5s-0.6-0.2-1-0.2
			c-0.7,0-1.2,0.2-1.7,0.7s-0.7,1.1-0.7,1.7c0,0.6,0.2,1.2,0.7,1.7l0,0c0.5,0.5,1,0.7,1.7,0.7s1.3-0.2,1.8-0.7
			c0.2-0.2,0.4-0.5,0.6-0.8C640.9,667.2,641,666.9,640.9,666.6z M971,666.6c0-0.6-0.2-1.2-0.7-1.7l0,0c-0.2-0.2-0.5-0.4-0.8-0.5
			s-0.6-0.2-1-0.2c-0.7,0-1.2,0.2-1.7,0.7s-0.7,1.1-0.7,1.7c0,0.6,0.2,1.2,0.7,1.7l0,0c0.5,0.5,1,0.7,1.7,0.7s1.3-0.2,1.8-0.7
			c0.2-0.2,0.4-0.5,0.6-0.8C971,667.2,971,666.9,971,666.6z M1432.7,666.6c0-0.6-0.2-1.2-0.7-1.7c0,0,0,0-0.1,0
			c-0.2-0.2-0.5-0.4-0.8-0.5s-0.6-0.2-1-0.2c-0.7,0-1.2,0.2-1.7,0.7s-0.7,1.1-0.7,1.7c0,0.6,0.2,1.2,0.7,1.7l0,0
			c0.5,0.5,1.1,0.7,1.7,0.7c0.7,0,1.3-0.2,1.8-0.7c0.2-0.2,0.4-0.5,0.6-0.8C1432.6,667.2,1432.7,666.9,1432.7,666.6z M430.8,687.5
			h3.2c0-0.1,0-0.2,0-0.3c0-0.3,0-0.6,0-1c0-0.5-0.1-1-0.1-1.6c0-0.2-0.1-0.4-0.1-0.6c0-0.2-0.1-0.4-0.1-0.5c0,0,0-0.1,0-0.2
			c0-0.1,0-0.1-0.1-0.2c-0.1-0.2-0.2-0.4-0.3-0.4c-0.1,0-0.3,0.2-0.5,0.5c-0.1,0.1-0.2,0.3-0.2,0.4c-0.1,0.2-0.2,0.4-0.3,0.6
			c0,0.1-0.1,0.2-0.1,0.3c-0.2,0.4-0.4,0.8-0.5,1.2c0,0.1-0.1,0.3-0.1,0.4c0,0.1-0.1,0.3-0.1,0.4C431,686.9,430.9,687.2,430.8,687.5
			C430.9,687.5,430.8,687.5,430.8,687.5z M1395.9,700L1395.9,700L1395.9,700z"/>
	</g>
</g>
<path d="M1208.4,367.5c0,8,0,15.4,0,23.1c-24.1,0-48.1,0-72.3,0c0-7.6,0-15.1,0-23c7.4,0,14.7,0,22.2,0c0-44.9,0-89.4,0-134
	c-0.1,0-0.2-0.1-0.4-0.1c-21.6,53-43.3,105.9-65,159c-2.1,0-4,0-6.3,0c-21.4-52.9-42.9-106-64.3-159c-0.2,0-0.3,0.1-0.5,0.1
	c0,44.5,0,89,0,133.9c6.9,0,13.7,0,20.7,0c0,7.9,0,15.3,0,23.1c-22.7,0-45.2,0-68,0c0-7.5,0-15,0-22.9c7.4,0,14.9,0,22.6,0
	c0-45.8,0-91.2,0-137.1c-7.4,0-14.9,0-22.6,0c0-7.9,0-15.4,0-23.1c21.9,0,43.8,0,66.1,0c16.6,41.4,33.3,82.9,50.2,125
	c17.1-42.2,33.9-83.6,50.8-125c22.3,0,44.4,0,66.7,0c0,7.7,0,15.2,0,22.9c-7.6,0-15,0-22.7,0c0,45.8,0,91.2,0,137.1
	C1193.1,367.5,1200.6,367.5,1208.4,367.5z"/>
<path d="M1370.6,599.3c0-7.7,0-15.1,0-22.9c9,0,17.9,0,27.1,0c0-45.9,0-91.4,0-137.1c-9,0-17.9,0-27,0c0-7.8,0-15.3,0-23
	c21.8,0,43.6,0,65.9,0c27.7,46.7,55.5,93.7,83.6,141.2c0-39.7,0-78.7,0-118.1c-8.9,0-17.8,0-26.9,0c0-7.8,0-15.3,0-23.1
	c26.3,0,52.6,0,79.1,0c0,7.5,0,15,0,22.9c-9.3,0-18.5,0-28.1,0c0,54.2,0,108,0,162c-10.2,0-20.1,0-30.4,0
	c-30.3-51.3-60.7-102.9-91.5-155.1c0,43.8,0,86.8,0,130.2c9,0,17.9,0,27,0c0,7.9,0,15.4,0,23.1
	C1423.3,599.3,1397.1,599.3,1370.6,599.3z"/>
<path d="M1322.7,435.1c0-6.3,0-12.4,0-18.8c8.3,0,16.4,0,24.7,0c0,19.7,0,39.5,0,59.4c-8.2,0-16.4,0-24.6,0
	c-0.2-0.3-0.5-0.6-0.7-0.9c-11.9-21-30-33-53.6-36.5c-13.1-1.9-26.1-0.7-38.4,4.4c-16.9,7-28,19.9-34.7,36.6
	c-4.5,11.2-5.7,23-4.6,35c0.8,9,2.6,17.6,6.6,25.7c8.6,17.4,22.4,28.9,40.8,34.5c22.5,6.9,44,4.4,63.9-8.8
	c10.7-7.1,17.8-16.9,20.3-29.7c0.1-0.4,0.1-0.8,0.2-1.5c-11.4,0-22.7,0-34.4,0c-0.2-7.9-0.1-15.5-0.1-23.2c23.5,0,46.7,0,69.9,0
	c0.1,0.2,0.4,0.5,0.4,0.7c0.9,16.6-1.5,32.6-9.8,47.3c-10,17.6-25.1,29.2-43.8,36.4c-12.3,4.7-25.1,6.7-38.3,7
	c-12.5,0.2-24.8-0.4-37-3.1c-16.2-3.6-30.8-10.3-42.7-22.2c-12.5-12.6-21.4-27.4-25.4-44.8c-5.3-23-4.4-45.7,5.6-67.4
	c12.5-26.9,33.5-43.7,62.7-49.8c20.4-4.2,40.7-3.7,60.8,2.5c11,3.4,21,8.8,30,16c0.4,0.3,0.8,0.6,1.2,0.9
	C1321.8,434.9,1322,434.9,1322.7,435.1z"/>
<path d="M560.9,599.6c0-7.9,0-15.3,0-23.1c8.6,0,17.1,0,25.7,0c0-45.9,0-91.4,0-137.2c-8.6,0-17.1,0-25.7,0c0-7.8,0-15.3,0-23
	c1.2-0.1,2.2-0.2,3.2-0.2c29,0,58-0.1,87,0.1c12.7,0.1,25.5,0.6,37.8,4.3c31.2,9.2,50.9,29.8,57.9,61.5c5.3,23.9,3.1,47.5-6.6,70.2
	c-4.7,10.9-11.2,20.5-20.7,27.8c-7.4,5.7-15.7,9.7-24.5,12.5c-10.2,3.3-20.7,4.8-31.3,5.9c-19.5,1.9-39.1,1.1-58.7,1.2
	c-13.4,0.1-26.7,0-40.1,0C563.8,599.6,562.6,599.6,560.9,599.6z M616.5,576.3c1.4,0,2.4,0,3.4,0c10.3-0.2,20.7-0.2,31-0.7
	c8.6-0.4,17.1-1.4,25.4-3.6c11.4-3.1,21.7-8.2,29-17.9c5.3-7,8.8-14.9,11-23.4c2.6-10.4,3.3-21,2.6-31.7
	c-0.8-10.9-3.4-21.2-8.8-30.7c-7.7-13.4-18.7-22.4-34.2-25.4c-8.5-1.6-17-2.6-25.5-3c-6.2-0.3-12.4-0.4-18.6-0.5
	c-5-0.1-10.1,0-15.3,0C616.5,485.1,616.5,530.5,616.5,576.3z"/>
<path d="M1265.2,230.5c-8.2,0-16.2,0-24.5,0c0-7.8,0-15.3,0-23c53.3,0,106.4,0,159.7,0c0,18.4,0,36.6,0,55.1c-7.8,0-15.5,0-23.6,0
	c0-10.5,0-21.1,0-31.9c-27.4,0-54.4,0-81.6,0c0,18,0,35.9,0,54.1c23.6,0,47.1,0,70.9,0c0,7.8,0,15.4,0,23.2c-23.5,0-47,0-70.4,0
	c-0.8,2.4-1.1,54.2-0.4,59.3c26.9,0,53.9,0,81.3,0c0-10.7,0-21.5,0-32.5c8.1,0,15.8,0,23.8,0c0,18.5,0,37,0,55.7
	c-53.1,0-106.3,0-159.6,0c-0.1-0.6-0.2-1.1-0.2-1.6c0-6.9,0-13.9,0-21.2c8.3-0.5,16.4,0.1,24.7-0.3
	C1265.2,321.9,1265.2,276.4,1265.2,230.5z"/>
<path d="M741.3,599.4c0-7.1,0-13.8,0-20.5c0-0.7,0.1-1.4,0.2-2.4c8.2,0,16.2,0,24.4,0c0-45.8,0-91.3,0-137.1c-8.1,0-16.1,0-24.4,0
	c0-7.8,0-15.3,0-23c53.1,0,106.2,0,159.6,0c0,18.2,0,36.5,0,55c-7.7,0-15.5,0-23.6,0c0-10.5,0-21,0-31.8c-27.3,0-54.3,0-81.5,0
	c0,17.9,0,35.8,0,54.1c23.6,0,47.1,0,70.9,0c0,7.9,0,15.4,0,23.2c-23.6,0-47.2,0-70.9,0c0,20,0,39.6,0,59.3c27.2,0,54.1,0,81.4,0
	c0-10.9,0-21.6,0-32.5c8.1,0,15.9,0,23.9,0c0,18.6,0,37.1,0,55.8C847.9,599.4,794.8,599.4,741.3,599.4z"/>
<path d="M825.7,228.1c-7.9,0-15.3,0-22.6,0c-0.9-2.5-1-17.2-0.2-20.6c32.6,0,65.3,0,98.2,0c0,6.8,0,13.5,0,20.5
	c-7.8,0-15.4,0-23.7,0c18,46.8,35.8,93.1,53.7,139.6c7,0,14,0,21.1,0c0,7.8,0,15.4,0,23.1c-25,0-50,0-75.1,0c0-7.6,0-15.1,0-22.9
	c7.7,0,15.4,0,23.6,0c-4.9-14.1-9.6-27.7-14.3-41.4c-22.9,0-45.5,0-68.6,0c-4.8,13.6-9.7,27.2-14.7,41.2c7.8,0,15.2,0,22.9,0
	c0,7.7,0,15.2,0,23c-25.1,0-50.3,0-75.7,0c0-7.6,0-15.1,0-22.9c7.7,0,15.2,0,23.1,0C790.7,321.2,808.1,274.8,825.7,228.1z
	 M878.9,304.1c-8.5-25.6-16.9-50.8-25.2-75.9c-0.8,0-1.4,0-2.2,0c-8.7,25.2-17.5,50.4-26.3,75.9
	C843.2,304.1,860.8,304.1,878.9,304.1z"/>
<path d="M1032.9,426.1c0-3.3,0-6.4,0-9.4c2.3-0.8,19.7-1,23.7-0.3c0,18,0,36.1,0,54.3c-7.8,0-15.6,0-23.6,0c0-4.3,0-8.5,0-12.4
	c-8.6-12.2-19.7-19.5-34.3-21c-6.8-0.7-13.5-0.5-20,1.4c-7.6,2.1-13.7,6.4-17,13.8c-4.5,10.1,0.3,22.2,10.9,27.5
	c3.9,2,8.3,3.2,12.5,4.4c12,3.4,24.2,6.5,36.2,9.9c4.3,1.2,8.5,2.7,12.6,4.4c17.7,7.4,28,20.9,31.4,39.5c2.7,14.5,0.6,28.3-8.4,40.4
	c-10,13.5-23.6,21.1-40.2,23.4c-21.1,2.9-40-2.3-56.6-15.8c-0.2-0.2-0.5-0.3-1.3-0.7c0,4.8,0,9.2,0,13.8c-8.3,0-16.1,0-24.2,0
	c0-22,0-44,0-66.3c7.8,0,15.7,0,23.9,0c0.1,0.7,0.3,1.5,0.3,2.3c0,2.3,0.3,4.6,0,6.8c-0.7,5.3,1.3,9.5,4.4,13.7
	c7,9.5,15.3,17.2,26.8,20.7c11.4,3.4,22.7,3.2,33.3-3.1c12.4-7.4,16.1-19.8,12.9-32.9c-1.3-5.2-4.5-9-9.2-11.6
	c-6.9-3.8-14.4-6.1-22-8.3c-11.9-3.5-23.8-6.8-35.6-10.6c-9-2.9-17.3-7.4-23.9-14.6c-6.9-7.5-10.8-16.2-11.8-26.4
	c-0.7-7.4-0.2-14.7,2.2-21.8c5.2-16,16.7-26,32.3-31c21.5-6.8,42.1-3.9,61.3,8.2c0.8,0.5,1.6,1,2.4,1.5
	C1032.1,426.1,1032.4,426.1,1032.9,426.1z"/>
<path d="M1676.5,426.6c0-3.8,0-7,0-10.4c8,0,15.7,0,23.6,0c0,18.1,0,36.2,0,54.5c-7.7,0-15.5,0-23.5,0c0-4.2,0-8.4,0-12.3
	c-8.5-12.2-19.6-19.5-34.3-21.1c-6.8-0.7-13.5-0.5-20,1.3c-8.1,2.3-14.4,6.8-17.5,14.9c-3.8,10.1,1.1,21.4,11.5,26.5
	c4,1.9,8.3,3.2,12.6,4.4c11.9,3.4,24,6.4,35.9,9.8c4.8,1.4,9.5,3,14,5c16.7,7.4,26.4,20.5,30,38.2c2.3,11.6,1.5,23.1-4,33.9
	c-7.9,15.7-20.9,25.3-37.7,29.3c-22.4,5.4-43.1,1.1-61.6-13c-0.7-0.6-1.5-1.1-2.2-1.7c-0.1-0.1-0.2-0.1-0.8-0.2c0,4.5,0,9,0,13.6
	c-8.4,0-16.3,0-24.4,0c0-22.1,0-44.1,0-66.3c8,0,15.8,0,23.9,0c0.1,0.7,0.3,1.5,0.3,2.3c0,3.2,0.2,6.4,0,9.6
	c-0.2,3.1,0.8,5.6,2.4,8.1c6,8.9,13,16.8,22.9,21.3c13.1,5.9,26.3,6.6,39-0.8c12.5-7.2,16.2-19.7,13-32.9c-1.3-5.2-4.4-9-9.1-11.6
	c-6.9-3.9-14.4-6.1-22-8.4c-11.9-3.5-23.8-6.9-35.7-10.6c-6.8-2.2-13.3-5.3-18.9-9.9c-10.4-8.5-16.2-19.4-16.9-32.9
	c-0.7-13,2-24.9,10.5-35c7.5-8.9,17.1-14.7,28.4-17.3c20.2-4.7,39.2-1.7,56.8,9.5C1674,425.1,1675,425.7,1676.5,426.6z"/>
<path d="M1545.8,367.4c0-20.6,0-41.1,0-61.7c9.3,0,18.2,0,27.4,0c0,28.2,0,56.4,0,84.9c-46.9,0-93.8,0-141.2,0
	c-0.1-7.4,0-14.9-0.1-22.9c8.3,0,16.4,0,24.7,0c0-45.9,0-91.3,0-137.1c-8.1,0-16.2,0-24.5,0c0-7.9,0-15.4,0-23.1
	c26.3,0,52.3,0,78.7,0c0,7.5,0,15.1,0,23c-7.7,0-15.3,0-23.1,0c0,45.8,0,91.3,0,136.9C1507,367.4,1526.2,367.4,1545.8,367.4z"/>
<path d="M616.1,294.1c20.4-21.1,40.6-42,61.4-63.5c-7.5,0-14.3,0-21.3,0c0-7.8,0-15.3,0-23c25,0,50,0,75.2,0c0,7.6,0,15,0,22.8
	c-6.7,0-13.4,0-20,0c-19.9,21.3-39.5,42.5-59.3,63.7c20.3,24.6,40.6,49,60.8,73.5c6.8,0,13.4,0,20.3,0c0,7.6,0,15.1,0,22.9
	c-25.8,0-51.8,0-78,0c0-7.4,0-14.9,0-22.8c6.5,0,13,0,20.4,0C655.4,342.9,635.9,318.6,616.1,294.1z"/>
<path d="M616,367.5c7.2,0,14.2,0,21.5,0c0,7.7,0,15.2,0,23c-24.9,0-49.9,0-75.1,0c0-7.5,0-15,0-22.8c7.8,0,15.6,0,23.7,0
	c0-45.8,0-91.3,0-137.1c-7.9,0-15.6,0-23.6,0c0-7.8,0-15.4,0-23.1c25.9,0,51.8,0,77.9,0c0,7.6,0,15.1,0,23c-8.1,0-16.1,0-24.3,0
	C616,276.2,616,321.6,616,367.5z"/>
<path d="M1097.8,439.3c-6.9,0-13.6,0-20.5,0c0-7.7,0-15.2,0-23c23.4,0,46.9,0,70.7,0c0,7.5,0,15,0,22.9c-6.7,0-13.4,0-20.3,0
	c0,45.8,0,91.3,0,137.1c6.8,0,13.4,0,20.2,0c0,7.8,0,15.3,0,23c-23.4,0-47,0-70.7,0c0-7.6,0-15.1,0-22.9c6.9,0,13.6,0,20.6,0
	C1097.8,530.6,1097.8,485.1,1097.8,439.3z"/>
</svg>
