<?xml version="1.0" encoding="utf-8"?>
<!-- Generator: Adobe Illustrator 26.0.2, SVG Export Plug-In . SVG Version: 6.00 Build 0)  -->
<svg version="1.1" baseProfile="tiny" id="Layer_1" xmlns="http://www.w3.org/2000/svg" xmlns:xlink="http://www.w3.org/1999/xlink"
	 x="0px" y="0px" viewBox="0 0 128 128" overflow="visible" xml:space="preserve">
<circle fill="#FF9E05" cx="196.1" cy="159.9" r="68.4"/>
<rect x="91" y="155.5" fill="#FF9E05" width="161.5" height="172.6"/>
<rect x="91" y="70.5" fill="#FF9E05" width="32.1" height="87.5"/>
<path fill="#FF9E05" d="M33.7,87.1c6.3,3.1,12.8,1.8,15.4-1.8c1.5-2.1,1.5-4.6,1.2-6.2c14.4,0,28.7,0,43.1,0
	c4.1,6.2,8.3,12.3,12.3,18.5c5.8-10.7,11.5-21.3,17.3-32.1c0-8.3,0-16.4,0-24.7c1.2,0,2.7-0.2,3.7-1.2c4.1-3.8-0.4-16.1-6.2-23.4
	c-7.6-9.5-18.9-11.7-23.4-12.3c-0.2,20.7-0.4,41.5-0.6,62.3c-21,0-41.9,0-62.9,0C33.7,73.2,33.7,80.1,33.7,87.1z"/>
<path fill="#FF9E05" d="M25.7,16.2C8.2,22.7-2.2,39.8,0.4,56.3C2.4,69.1,12,80.1,25,84.7C25.3,61.9,25.4,39,25.7,16.2z"/>
<path fill="#FF9E05" d="M62,0.8c-12.6,2-21.8,6.7-27.1,9.9c-0.4,15.7-0.9,31.2-1.2,46.8c18.9-0.4,37.8-0.9,56.7-1.2
	c0-18.1,0-36.1,0-54.2C84.5,0.6,74.4-1,62,0.8z M61.4,44c-7.8,0-14.2-6.3-14.2-14.2s6.3-14.2,14.2-14.2S75.6,22,75.6,29.8
	S69.2,44,61.4,44z"/>
<ellipse fill="#FF9E05" cx="58.3" cy="29.8" rx="7.5" ry="8"/>
<rect x="251.9" y="152.1" fill="#FF9E05" width="25.3" height="12.9"/>
<rect x="265.4" y="157" fill="#FF9E05" width="11.7" height="69"/>
<rect x="240.2" y="334.5" fill="#FF9E05" width="12.3" height="136.8"/>
<rect x="219.4" y="334.1" fill="#FF9E05" width="12.3" height="136.8"/>
<rect x="128" y="332.9" fill="#FF9E05" width="12.3" height="136.8"/>
<polygon fill="#FF9E05" points="123.9,327 113.2,320.8 88,364.3 98.8,370.5 "/>
<polygon fill="#FF9E05" points="100.4,359.7 88.8,364 127.1,468.7 138.7,464.4 "/>
<rect x="107" y="58.2" fill="#FF9E05" width="16" height="56.7"/>
</svg>
