<?xml version="1.0" encoding="utf-8"?>
<!-- Generator: Adobe Illustrator 26.0.2, SVG Export Plug-In . SVG Version: 6.00 Build 0)  -->
<svg version="1.1" id="Layer_1" xmlns="http://www.w3.org/2000/svg" xmlns:xlink="http://www.w3.org/1999/xlink" x="0px" y="0px"
	 viewBox="0 0 1920 1080" style="enable-background:new 0 0 1920 1080;" xml:space="preserve">
<style type="text/css">
	.st0{fill:none;stroke:#FFD49B;stroke-width:17;stroke-miterlimit:10;}
	.st1{fill:#FFD49B;}
</style>
<path class="st0" d="M1907.5,500.5c-52,44.5-124.7,114.4-194,213c-102.3,145.5-139,271.1-159,265c-17.1-5.2-13.2-104.7,20-202
	c63.4-185.8,203-273.5,186-297c-13.5-18.6-117.4,14.1-214,87c-211.5,159.6-259.5,414.9-295,404c-19.3-6-18.4-85.7-12-133
	c7.8-57.8,25.9-84.6,16-92c-15.9-11.9-88.7,38.5-139,111c-55.1,79.4-45.4,130.5-81,143c-53,18.6-104.4-84.1-186-123
	c-154.6-73.7-303.7,214.8-485,178c-70.2-14.2-120.4-67.9-154-117"/>
<circle class="st1" cx="209.2" cy="937.2" r="8.8"/>
<circle class="st1" cx="1908" cy="500" r="8.5"/>
</svg>
