<?xml version="1.0"?>
<svg xmlns="http://www.w3.org/2000/svg" id="outline" viewBox="0 0 512 512" width="512" height="512"><path d="M192,40V72h-8a8.00008,8.00008,0,0,0-8,8v39.01465L128.23877,310.05957a7.99831,7.99831,0,0,0,.17187,4.4707L135.5672,336l-5.33331,16H80V328H64v32a8.00008,8.00008,0,0,0,8,8H176V352H147.09943l3.62219-10.86646,21.71588-14.47729a7.99728,7.99728,0,0,0,3.34473-4.80371L214.31854,160h3.36292l38.53631,161.85254a7.9973,7.9973,0,0,0,3.34472,4.80371l21.71589,14.47729L284.90057,352H264v16h96a8.00008,8.00008,0,0,0,8-8V264H352v88H301.76611l-5.33331-16,7.15656-21.46973a7.99831,7.99831,0,0,0,.17187-4.4707L256,119.01465V80a8.00008,8.00008,0,0,0-8-8h-8V40a24,24,0,0,0-48,0Zm0,48h48v29.333L220,144h-8l-20-26.667ZM160.9458,315.08789l-12.66846,8.44531-3.95117-11.85254,43.35864-173.43457,11.66382,15.55176Zm122.77686,8.44531-12.66846-8.44531-38.40283-161.29,11.66382-15.55176,43.35864,173.43457ZM224,40V72H208V40a8,8,0,0,1,16,0Z"/><circle cx="216" cy="112" r="8"/><path d="M448,40H408a8.00008,8.00008,0,0,0-8,8V88H272v16H400V328a8.00008,8.00008,0,0,0,8,8h40a32,32,0,0,1,0,64H64a47.80135,47.80135,0,0,0-32,12.26123V136a32.03635,32.03635,0,0,1,32-32h96V88H64a48.054,48.054,0,0,0-48,48V448a48.054,48.054,0,0,0,48,48h56a8.00008,8.00008,0,0,0,8-8V416H448a48.054,48.054,0,0,0,48-48V88A48.054,48.054,0,0,0,448,40ZM112,480H64a32,32,0,0,1,0-64h48ZM480,332.252A47.80823,47.80823,0,0,0,448,320H416V56h32a32.03635,32.03635,0,0,1,32,32Z"/><path d="M64,120v16H48v16H64V280H80V184h24a8.00008,8.00008,0,0,0,8-8V152h40V136H80V120Zm32,32v16H80V152Z"/><rect x="64" y="296" width="16" height="16"/><path d="M352,120v16H280v16h40v24a8.00008,8.00008,0,0,0,8,8h24v32h16V152h16V136H368V120Zm0,48H336V152h16Z"/><rect x="352" y="232" width="16" height="16"/><rect x="192" y="352" width="16" height="16"/><rect x="224" y="352" width="16" height="16"/></svg>
